<?xml version="1.0" encoding="utf-8"?>
<!-- Generator: Adobe Illustrator 27.0.0, SVG Export Plug-In . SVG Version: 6.00 Build 0)  -->
<svg version="1.1" id="Layer_1" xmlns="http://www.w3.org/2000/svg" xmlns:xlink="http://www.w3.org/1999/xlink" x="0px" y="0px"
	 viewBox="0 0 655.4 655.4" style="enable-background:new 0 0 655.4 655.4;" xml:space="preserve">
<style type="text/css">
	.st0{fill:#EDE3DF;}
</style>
<path class="st0" d="M0,330.9c0.7-89.6,29.6-165.1,89.3-228.1C152.6,36,230.8,1.7,322.7,0.1c82.4-1.5,155.6,24.7,217.9,78.3
	c76.6,65.9,115.1,150.7,114.8,251.4c-0.3,92.5-35,172.1-102.2,235.9c-64.4,61.1-142.2,91.2-230.8,89.7
	c-88.9-1.5-165.9-34.2-228.4-97.8C31.6,494,0.9,417,0,330.9z M310.8,291.7v134.7h25.8V378c1.6,1.4,2.6,2.1,3.5,3.1
	c17.4,18.3,51.4,12.9,63.1-10.5c8.3-16.6,8.8-33.9,3.7-51.4c-8.2-28.2-39.6-37.3-60.3-24.2c-3.4,2.2-6.4,5-10.2,8v-11.3H310.8z
	 M259.4,339.2c-12.8-11.5-27-12.9-42-9.6c-15.1,3.3-24.8,18.5-22.7,33.9c3,21.2,22,30.2,39.1,28.3c9.4-1,17.8-4.6,25.4-11.4
	c0.2,3.4,0.3,6.1,0.4,8.8h25.3c0.2-0.5,0.5-0.8,0.5-1.1c0-21.8,0.5-43.7-0.1-65.5c-0.3-11.5-5.5-21.3-16-27
	c-21-11.4-51-7.2-69.3,9.5c3.1,5.4,6.4,10.9,9.6,16.6c2-1.4,3.6-2.6,5.2-3.7c9.5-6.5,19.8-9.3,31.1-6.5c7.5,1.8,14.3,7.2,13.5,16.5
	C259.2,331.4,259.5,334.9,259.4,339.2L259.4,339.2z M513.2,260.6c3.5,0,6.6,0.2,9.6,0c11-0.8,15.2,7.2,15.1,15.4
	c-0.2,11.2-0.3,22.3,0,33.5c0.2,8,0,16.5,7.8,21.1c-2.2,3.3-4.9,6.2-6.1,9.6c-1.3,4-1.7,8.4-1.7,12.7c-0.2,11.2,0,22.3-0.1,33.5
	c0,10.3-5,15.3-15.2,15.3c-2.3,0-4.7-0.3-7,0.1c-1,0.2-2.6,1.7-2.6,2.6c-0.3,4.8-0.1,9.6-0.1,14.9c4,0,7.5,0.1,10.9,0
	c13.4-0.6,23.9-5.9,30-18.6c3.4-7.1,2.7-14.5,2.9-21.9c0.3-9.8-0.1-19.7,0.7-29.4c0.3-3.3,2.5-8.2,5.2-9.3c4.8-2,5.2-4.7,4.8-8.7
	c-0.2-2.3,0-4.6,0-7.2c-7.3-0.8-9.8-5.7-10.2-12.1c-0.3-5.5-0.3-11.1-0.4-16.7c-0.2-8.9,1-18-0.8-26.5
	c-4.5-20.5-20.5-28.6-42.7-24.8L513.2,260.6L513.2,260.6z M109.4,331.1c8.1-4.6,8.9-12.1,8.9-19.9c0.1-12.2-0.1-24.4,0.2-36.6
	c0.2-9.7,5-14,14.7-14c3.4,0,6.7,0,9.9,0v-17.3c-3.7,0-7,0-10.3,0c-20.3,0.1-33.2,13-33.4,33.2c-0.1,10.5,0.1,21-0.1,31.5
	c-0.1,7.4-1.1,14.5-10.3,16.2v13.9c8.8,1.5,10.2,8.1,10.3,15.3c0.2,11.2,0,22.3,0.1,33.5c0,7.5,2.1,14.4,6.8,20.4
	c9,11.5,21.6,12.5,34.7,12c0.9,0,2.4-1.5,2.4-2.3c0.2-4.9,0.1-9.8,0.1-15.4c-5,0-9.3,0.2-13.6-0.1c-5.5-0.4-9.6-4-10.7-9.4
	c-0.6-2.9-0.8-5.9-0.8-8.9c-0.1-11,0-22.1-0.1-33.1C118.2,342.5,117,335.4,109.4,331.1L109.4,331.1z M428.8,291.7V389h25.3v-97.3
	H428.8z M456.7,266.5c0.3-8.7-5.8-15.5-14.2-15.8c-9-0.3-16.3,6.2-16.5,14.8c-0.2,8,6.6,15.4,14.7,15.8
	C449.1,281.7,456.3,275.1,456.7,266.5L456.7,266.5z"/>
<path class="st0" d="M336.5,340.5c0-2.3-0.2-4.7,0-7c0.5-4.3,0-9.5,2.4-12.6c4.2-5.7,11.1-8.2,18.4-8.5c12.2-0.6,21.5,6.3,24.4,18.3
	c3,12.4,1.9,24.1-8.3,33.2c-9,8.1-27,6.4-36.1-5.1c-0.7-0.9-0.7-2.5-0.7-3.8C336.4,350.2,336.5,345.4,336.5,340.5L336.5,340.5z"/>
<path class="st0" d="M260.5,359.3c-1.1,8.7-4.7,12.9-15.4,14.6c-5,0.8-10.5-0.1-15.5-1.5c-5.7-1.6-9-6.1-9.1-12.2
	c-0.1-6.2,3.3-10.3,8.7-12.6c9.7-4.2,18.9-2.2,27.2,3.6C258.6,352.7,259.2,356.5,260.5,359.3L260.5,359.3z"/>
</svg>
