<?xml version="1.0" encoding="UTF-8"?>
<svg id="Layer_1" data-name="Layer 1" xmlns="http://www.w3.org/2000/svg" viewBox="0 0 655.34 655.54">
  <defs>
    <style>
      .cls-1 {
        fill: #ece1dd;
      }
    </style>
  </defs>
  <path class="cls-1" d="M304.02,.31c-2.48,.26-10.23,1.18-17.07,1.99-27.57,3.14-58.83,11.42-86.27,22.98C101.38,66.76,26.65,157.79,6.03,262.19c-4.85,24.83-6.03,37.03-6.03,65.67,0,36.91,3.67,62.38,13.39,94.57,31.78,105.32,114.52,187.93,220.12,219.83,31.78,9.6,57.39,13.27,94.16,13.27s62.38-3.67,94.57-13.39c105.32-31.78,187.93-114.52,219.83-220.12,9.6-31.78,13.27-57.39,13.27-94.16,0-15.63-.78-33.48-1.7-40.06-10.64-75.91-41.9-139.74-94.03-191.88C507.59,44.17,444.02,12.79,369.69,2.15c-10.24-1.45-57.65-2.77-65.67-1.85h0Zm-107.03,206.86c6.98,2.1,10.24,4.07,14.97,8.8,9.2,9.34,11.3,14.45,11.3,28.5,0,10.52-.4,12.49-3.54,18-6.05,10.24-20.1,19.7-29.82,19.96-6.84,.14-6.56-2.88,.92-10.76,9.98-10.38,11.42-14.31,11.42-29.82-.12-14.96-1.96-20.08-8.92-24.29-5.79-3.54-12.08-3.28-21.28,1.04-23.91,11.44-49.78,49.52-59.88,88.54-13.41,52,10.36,93.63,49.5,86.53,11.42-2.1,32.96-13.12,42.3-21.8,7.74-7.07,7.74-7.21,8.52-16.01,1.72-18.4,14.71-36.78,32.06-45.31,7.99-3.95,9.98-4.33,20.74-4.33s12.6,.52,17.6,3.27c15.89,9.08,12.6,30.22-4.59,30.22-9.98,0-15.11-5.13-7.87-7.87,7.1-2.63,4.45-12.49-3.81-14.71-9.72-2.5-20.76,4.07-27.72,16.67-8.41,15.24-8.8,33.37-.8,41.63,7.76,8.27,17.47,1.72,24.97-17.08,3.93-9.58,9.58-14.71,16.15-14.71,5.77,0,6.83,3.55,4.32,14.33-3.68,16.67-1.18,21,9.2,15.89,3.41-1.59,9.06-5.25,12.47-7.87l6.43-5.13,4.35-22.73c4.73-25.47,6.55-28.9,16.27-30.72,9.34-1.72,11.44,2.88,8.01,17.45l-1.85,8.16,6.84-6.98c16.15-16.55,35.99-24.69,42.82-17.85,3.67,3.67,3.27,8.27-1.98,24.55-2.49,7.76-5.92,19.98-7.47,26.93-2.37,10.5-2.51,13.01-1.18,14.71,4.21,4.99,17.07-.14,28.49-11.31l6.69-6.55,.8-14.59c.78-16.81,2.34-22.84,6.81-28.24,4.21-4.99,11.83-8.65,15.89-7.61,4.07,1.06,4.07,4.99,.4,16.56-5.13,15.89-4.59,52.52,.66,52.52,2.1,0,12.86-11.29,19.7-20.74l5.11-6.98-4.07-4.19c-7.1-7.49-8.8-12.34-8.8-24.57,0-8.92,.66-12.2,2.88-16.56,3.69-6.81,9.46-11.8,16.29-13.78,7.21-2.23,16.15,1.44,19.82,8.01,3.69,6.69,2.77,21.66-1.96,31.93l-3.41,7.47h4.59c6.31,0,8.8-1.56,20.1-12.2,5.91-5.65,12.74-10.52,17.85-12.88,20.1-9.44,43.75-4.59,47.67,9.86,3.28,11.56-3.92,19.7-16.55,18.78-9.06-.66-10.76-3.03-5.51-7.47,9.45-7.9,0-18-13.53-14.33-7.36,1.98-15.63,10.24-19.96,19.84-8.68,19.18-4.07,41.76,8.39,41.76,4.99,0,13.81-9.86,17.21-19.44,4.07-11.04,12.6-17.99,19.04-15.49,3.55,1.31,3.81,4.85,1.59,16.02-2.5,12.23-2.89,23.65-.92,28.9,.78,1.96,3.15,5.65,5.39,8.14,4.19,4.72,4.33,6.43,.78,8.68-1.7,1.18-3.95,.66-9.45-2.36-7.62-3.95-14.19-11.05-16.56-17.74l-1.44-3.93-5.25,3.93c-3.03,2.1-7.75,4.47-10.5,5.25-10.9,2.89-24.31-4.59-30.6-17.19-2.51-4.87-3.29-19.18-1.45-24.69,.7-2.02-.36-2.33-3.17-.92-2.22,1.19-6.95,2.49-10.62,2.89-6.05,.67-6.98,1.32-13.01,8.94-8.54,10.62-23.65,24.95-29.82,27.98-13.12,6.55-17.45,4.71-20.88-8.82l-2.37-9.05-5.65,4.99c-7.21,6.31-21.66,13.93-29.94,15.77-7.87,1.7-16.29-.8-19.7-6.05-5.1-7.87-3.4-24.55,4.73-47.01,6.03-16.67,1.71-16.93-13.52-1.04-11.3,11.94-16.15,20.48-19.3,33.75-3.28,13.79-7.23,18.78-16.15,20.88-5.39,1.19-7.9-2.1-6.83-9.32l.78-5.79-4.99,3.43c-7.1,4.85-16.03,9.32-22.2,11.02s-14.31-.12-16.27-3.55c-2.36-4.02-5.38-4.59-9.05-1.7-11.96,9.72-29.04,6.96-37.7-5.91l-2.77-4.07-8.65,8.01c-24.97,22.85-56.21,33.09-79.33,25.99-29.42-8.92-45.69-34.15-45.43-70.52,.12-36.51,16.27-74.99,43.47-103.49,15.37-16.03,29.82-25.49,44.53-29.04,10.62-2.63,17.07-2.49,27.17,.66h0l.03-.05Z"/>
  <path class="cls-1" d="M463.2,300.55c-2.89,2.88-1.83,14.45,1.85,21.8,1.84,3.81,3.81,6.83,4.46,6.83,.52,0,1.7-3.03,2.63-6.72,3.28-13.65-2.63-28.24-8.94-21.92h0Z"/>
</svg>