<?xml version="1.0" encoding="UTF-8"?>
<svg id="Layer_1" data-name="Layer 1" xmlns="http://www.w3.org/2000/svg" viewBox="0 0 655.34 651.63">
  <defs>
    <style>
      .cls-1 {
        fill: #ece1dd;
      }
    </style>
  </defs>
  <path class="cls-1" d="M531.43,134.32l-19.85,195.31h0l.06,1.05-.08,2.42v-.02l-14.11,136.57-1.55,12.13-168.23,40.74h0l-.13,.1-167.93-40.97-11.37-112.91h82.35l5.84,57.41,91.27,21.66-.03,.05h0l91.61-21.97,9.67-93.5H237.46l-1.64-15.8-3.74-37.03-1.96-19.88h206.12l7.5-72.71H129.79l-1.64-15.79-3.74-37.04-1.96-19.88h410.96l-1.97,20.06h-.01ZM0,0L59.64,586.29l267.63,65.34,268.38-65.58L655.34,0H0Z"/>
</svg>