<?xml version="1.0" encoding="UTF-8"?>
<svg id="Layer_1" data-name="Layer 1" xmlns="http://www.w3.org/2000/svg" viewBox="0 0 508.64 655.34">
  <defs>
    <style>
      .cls-1 {
        fill: #ece1dd;
      }
    </style>
  </defs>
  <path class="cls-1" d="M231.01,0h107.16V496.01c-54.97,10.44-95.33,14.62-139.16,14.62C68.19,510.63,0,451.49,0,338.07S72.37,157.84,184.39,157.84c17.4,0,30.62,1.39,46.62,5.57V0Zm0,249.67c-12.52-4.17-22.96-5.56-36.18-5.56-54.27,0-85.59,33.4-85.59,91.84s29.93,88.37,84.9,88.37c11.82,0,21.56-.7,36.87-2.77V249.67h0Z"/>
  <path class="cls-1" d="M508.63,165.48v248.41c0,85.59-6.27,126.64-25.05,162.12-17.4,34.1-40.36,55.67-87.67,79.33l-99.5-47.31c47.32-22.27,70.27-41.74,84.89-71.68,15.31-30.61,20.19-66.1,20.19-159.34V165.48h107.14ZM401.47,.57h107.16V110.51h-107.16V.57Z"/>
</svg>