<?xml version="1.0" encoding="UTF-8"?>
<svg id="Layer_1" data-name="Layer 1" xmlns="http://www.w3.org/2000/svg" viewBox="0 0 652.99 652.87">
  <defs>
    <style>
      .cls-1 {
        fill: #ece1dd;
      }
    </style>
  </defs>
  <g id="sXHYKS">
    <path class="cls-1" d="M323.32,652.85C144.13,651.85-5.51,502.58,.16,315.71,5.41,142.43,150.42-5.3,337.09,.15c173.06,5.05,319.67,149.14,315.83,333.85-3.65,175.69-148.38,320.77-329.6,318.86Zm-187.92-182.06h385.04c-46.1-46.11-92.26-92.26-138.56-138.57-.57,.41-1.57,1.1-2.54,1.84-15.97,12.23-31.99,24.39-47.83,36.78-2.72,2.13-4.34,1.91-6.92-.1-15.75-12.29-31.64-24.4-47.48-36.57-1.14-.88-2.33-1.7-2.93-2.13-46.48,46.48-92.58,92.58-138.77,138.76Zm.22-288.82c1.54,1.36,2.27,2.09,3.09,2.72,62.18,47.77,124.37,95.52,186.5,143.35,2.29,1.76,3.69,1.67,5.92-.04,62.06-47.7,124.18-95.32,186.28-142.97,.99-.76,1.89-1.65,3.48-3.05H135.61Zm-2.76,240.21c37.33-37.33,74.81-74.8,112.46-112.45-37-28.42-74.48-57.19-112.46-86.36v198.81Zm278.21-112.47c37.7,37.7,75.08,75.09,112.07,112.08V223.77c-37.95,29.1-75.29,57.75-112.07,85.95Z"/>
  </g>
</svg>