<?xml version="1.0" encoding="UTF-8"?>
<svg id="Layer_1" data-name="Layer 1" xmlns="http://www.w3.org/2000/svg" viewBox="0 0 655.35 380.61">
  <defs>
    <style>
      .cls-1 {
        fill: #ece1dd;
      }
    </style>
  </defs>
  <path class="cls-1" d="M655.34,370.39c-23.83,6.08-38.56,.27-51.82-19.59-29.69-44.49-62.46-86.92-94-130.18-4.08-5.6-8.31-11.08-13.57-18.06-37.49,50.28-74.96,98.61-110.04,148.61-12.55,17.9-25.74,25.65-49.13,19.34,46.88-62.91,93.38-125.32,140.73-188.86-43.49-56.65-86.68-112.89-131.01-170.63,22.54-4.42,38.12-2.12,51.94,18.05,30.5,44.54,64.1,86.94,97.64,131.82,33.65-44.72,67.05-87.19,98.12-131.3,12.58-17.87,26.18-24.68,48.75-18.11-17.16,22.76-33.91,45.1-50.8,67.33-22.78,29.98-45.17,60.28-68.78,89.59-8.4,10.43-7.05,17.24,.48,27.12,43.81,57.53,87,115.53,131.5,174.85h0v.02Z"/>
  <path class="cls-1" d="M30.71,170.71H294.39c-1.73-83.95-53.99-143.6-125.31-144.15-78.64-.6-135,57.64-138.38,144.15h0ZM0,178.48c3.76-18.88,6.27-38.12,11.48-56.6C43.06,9.83,171.49-36.77,259.82,32.69c51.78,40.71,64.63,98.1,62.11,163H30.18c-4.41,116.12,79.22,186.24,185.78,150.49,37.4-12.55,59.38-42.04,70.42-78.45,5.57-18.36,14.84-21.24,32.12-15.99-8.81,45.79-28.89,84.08-70.7,108.03-62.57,35.84-152.28,24.25-199.38-25.55-27.88-29.47-39.82-65.93-44.77-105.29-.79-6.27-2.42-12.44-3.65-18.65v-31.8H0Z"/>
</svg>