<?xml version="1.0" encoding="UTF-8"?>
<svg id="Layer_1" data-name="Layer 1" xmlns="http://www.w3.org/2000/svg" viewBox="0 0 436.9 655.34">
  <defs>
    <style>
      .cls-1 {
        fill: #ece1dd;
      }
    </style>
  </defs>
  <path class="cls-1" d="M109.22,655.34c60.45,0,109.22-48.77,109.22-109.22v-109.22H109.22c-60.45,0-109.22,48.77-109.22,109.22s48.77,109.22,109.22,109.22h0ZM0,327.67c0-60.45,48.77-109.22,109.22-109.22h109.22v218.45H109.22c-60.45-.01-109.22-48.78-109.22-109.23ZM0,109.22C0,48.77,48.77,0,109.22,0h109.22V218.45H109.22C48.77,218.45,0,169.68,0,109.22ZM218.45,0h109.22c60.45,0,109.22,48.77,109.22,109.22s-48.77,109.22-109.22,109.22h-109.22V0h0Zm218.45,327.67c0,60.45-48.77,109.22-109.22,109.22s-109.22-48.77-109.22-109.22,48.77-109.22,109.22-109.22,109.22,48.77,109.22,109.22Z"/>
</svg>