<?xml version="1.0" encoding="UTF-8"?>
<svg id="Layer_1" data-name="Layer 1" xmlns="http://www.w3.org/2000/svg" viewBox="0 0 655.33 655.33">
  <defs>
    <style>
      .cls-1 {
        fill: #ece1dd;
      }
    </style>
  </defs>
  <path class="cls-1" d="M642.98,298.48L356.85,12.36c-16.47-16.48-43.19-16.48-59.68,0l-59.41,59.42,75.37,75.37c17.52-5.91,37.6-1.95,51.56,12.02,14.03,14.05,17.97,34.3,11.91,51.88l72.64,72.64c17.57-6.06,37.85-2.14,51.88,11.92,19.62,19.61,19.62,51.39,0,71.01-19.62,19.63-51.4,19.63-71.03,0-14.75-14.77-18.4-36.44-10.93-54.62l-67.74-67.74v178.28c4.77,2.36,9.29,5.52,13.27,9.49,19.61,19.61,19.61,51.39,0,71.03-19.62,19.61-51.41,19.61-71.01,0-19.61-19.65-19.61-51.42,0-71.03,4.85-4.84,10.46-8.5,16.44-10.95V241.14c-5.99-2.45-11.58-6.08-16.44-10.96-14.86-14.85-18.44-36.65-10.82-54.9l-74.29-74.31L12.36,297.15c-16.48,16.49-16.48,43.22,0,59.7l286.13,286.12c16.48,16.48,43.19,16.48,59.69,0l284.79-284.79c16.48-16.48,16.48-43.22,0-59.7h.01Z"/>
</svg>