<?xml version="1.0" encoding="UTF-8"?>
<svg id="Layer_1" data-name="Layer 1" xmlns="http://www.w3.org/2000/svg" viewBox="0 0 655.34 655.34">
  <defs>
    <style>
      .cls-1, .cls-2 {
        fill: #ece1dd;
      }

      .cls-2 {
        fill-rule: evenodd;
      }
    </style>
  </defs>
  <path class="cls-2" d="M327.67,0C146.73,0,0,150.41,0,335.97c0,148.44,93.89,274.37,224.08,318.8,16.37,3.12,22.38-7.29,22.38-16.16,0-8.01-.3-34.48-.44-62.55-91.16,20.32-110.39-39.64-110.39-39.64-14.91-38.83-36.38-49.16-36.38-49.16-29.73-20.85,2.24-20.42,2.24-20.42,32.9,2.36,50.23,34.62,50.23,34.62,29.22,51.35,76.65,36.51,95.35,27.93,2.94-21.71,11.43-36.54,20.8-44.93-72.78-8.48-149.29-37.3-149.29-166.03,0-36.68,12.81-66.65,33.77-90.18-3.41-8.46-14.62-42.63,3.17-88.9,0,0,27.51-9.03,90.13,34.44,26.14-7.45,54.18-11.19,82.03-11.32,27.84,.13,55.89,3.86,82.08,11.31,62.54-43.47,90.02-34.44,90.02-34.44,17.84,46.27,6.62,80.45,3.22,88.9,21.01,23.53,33.72,53.5,33.72,90.18,0,129.04-76.65,157.45-149.62,165.77,11.76,10.43,22.23,30.88,22.23,62.22,0,44.95-.38,81.13-.38,92.2,0,8.94,5.9,19.42,22.51,16.12,130.12-44.47,223.89-170.36,223.89-318.75C655.33,150.42,508.63,0,327.67,0h0Z"/>
  <path class="cls-1" d="M124.1,482.37c-.72,1.67-3.28,2.17-5.62,1.03-2.39-1.09-3.72-3.37-2.95-5.04,.71-1.72,3.27-2.2,5.64-1.05,2.39,1.1,3.74,3.39,2.91,5.06h0Zm13.27,15.18c-1.56,1.49-4.61,.8-6.68-1.56-2.15-2.34-2.55-5.47-.96-6.98,1.62-1.48,4.58-.78,6.73,1.56,2.14,2.37,2.56,5.47,.92,6.98h0Zm12.92,19.34c-2.01,1.44-5.3,.09-7.33-2.89-2.01-2.99-2.01-6.58,.05-8.01,2.02-1.44,5.26-.14,7.33,2.82,2,3.03,2,6.62-.05,8.08h0Zm17.69,18.7c-1.79,2.03-5.62,1.49-8.42-1.28-2.86-2.71-3.66-6.56-1.86-8.59,1.82-2.04,5.67-1.47,8.49,1.28,2.86,2.7,3.72,6.56,1.81,8.58h-.01Zm24.42,10.86c-.8,2.63-4.48,3.83-8.19,2.7-3.71-1.15-6.13-4.23-5.37-6.89,.76-2.65,4.47-3.89,8.2-2.7,3.71,1.15,6.13,4.21,5.36,6.88Zm26.82,2.01c.09,2.77-3.05,5.06-6.95,5.12-3.92,.09-7.1-2.15-7.14-4.88,0-2.8,3.08-5.06,7-5.14,3.89-.07,7.09,2.15,7.09,4.9h0Zm24.95-4.35c.47,2.7-2.24,5.47-6.11,6.21-3.8,.72-7.33-.96-7.81-3.63-.47-2.77,2.29-5.55,6.09-6.26,3.87-.68,7.35,.95,7.84,3.69h0Z"/>
</svg>