<?xml version="1.0" encoding="UTF-8"?>
<svg id="Layer_1" data-name="Layer 1" xmlns="http://www.w3.org/2000/svg" viewBox="0 0 655.34 655.34">
  <defs>
    <style>
      .cls-1 {
        fill: #ede2de;
      }
    </style>
  </defs>
  <path class="cls-1" d="M327.67,0C146.7,0,0,146.7,0,327.67s146.7,327.67,327.67,327.67,327.67-146.7,327.67-327.67S508.64,0,327.67,0ZM179.03,562.85c-31.96,.33-58.57-25.64-58.74-57.85-.17-32.65,26.12-57.81,56.6-58.64,33.57-.92,60.22,26.61,59.84,58.11,.13,32.17-25.65,58.05-57.71,58.38Zm206.74-57.54c-.43,24.58-12.42,42.59-34.82,52.5-21.61,9.56-42.32,6.27-60.66-8.6-13.51-10.95-20.43-25.67-20.87-43.02-.43-17.08-.13-34.18-.13-51.27,0-41.41-.06-82.82,.04-124.23,.05-19.38,7.78-35.17,23.03-47.2,20.33-16.04,51.31-15.79,71.35,.6,14.8,12.11,22.22,27.73,22.2,46.88-.03,28.75,0,57.49,0,86.24h-.01c0,29.37,.4,58.74-.12,88.1Zm149.18,1.45c-.04,14.3-5.63,26.74-15.25,37.27-9,9.85-20.15,16.02-33.33,18.07-16.05,2.5-30.97-.71-44.07-10.52-15.75-11.79-23.82-27.74-23.86-47.4-.12-63.87-.04-127.74-.04-191.61,0-54-.02-108.01,.03-162.01,0-11.28,2.98-21.77,9.11-31.29,8.84-13.73,21.25-22.5,37.23-25.77,20.18-4.13,37.96,1.15,52.74,15.33,11.54,11.07,17.47,24.95,17.49,41.05,.06,59.13,.02,118.26,.02,177.4h0c0,59.83,.1,119.66-.07,179.49Z"/>
</svg>