<?xml version="1.0" encoding="UTF-8"?>
<svg id="Layer_1" data-name="Layer 1" xmlns="http://www.w3.org/2000/svg" viewBox="0 0 655.15 655.34">
  <defs>
    <style>
      .cls-1 {
        fill: #ece1dd;
        fill-rule: evenodd;
      }
    </style>
  </defs>
  <path class="cls-1" d="M592.75,327.12v252.44c0,8.78-1.32,7.98-9.78,7.98H76.8c-8.46,0-9.21,.8-9.21-7.98V74.04c0-8.78,.75-11.65,9.85-11.65h504.89c9.1,0,10.41,2.87,10.41,12.29v252.44h.01ZM0,0V654.06c5.2,.43,5.15,1.22,7.07,1.22,188.58,.06,377.82,.06,566.41,.06,25.97,0,51.26,.02,77.23-.06,1.71,0,4.44-.8,4.44-1.22V0H0Z"/>
  <path class="cls-1" d="M265.18,348.37c10.59-36.4,21.1-72,31.46-107.34,10.68,35.21,21.53,70.94,32.55,107.34h-64.01Zm64.54-143.67c-1.11-3.44-3.18-3.62-6.21-3.6-16.19,.1-32.39,.36-48.57,0-5.12-.11-7.33,1.42-8.92,6.41-22.8,71.68-45.84,143.3-68.8,214.93-3.74,11.68-7.37,23.4-11.36,36.08,15.13,0,28.97-.21,42.79,.14,4.7,.12,6.65-1.43,7.93-5.85,5.92-20.4,12.32-40.67,18.18-61.08,1.38-4.81,3.61-6.11,8.45-6.06,23,.27,46.02,.27,69.02,0,4.48-.05,6.3,1.39,7.56,5.52,6.31,20.53,13.01,40.94,19.31,61.48,1.3,4.24,2.95,5.88,7.83,5.52,6.78-.5,13.63-.61,20.45-.61h23.88c-.06,0,.01-1.34-.11-1.72-27.16-83.75-54.34-167.37-81.43-251.14h0v-.02Z"/>
  <path class="cls-1" d="M421.16,457.56h52v-187.18h-52v187.18h0Z"/>
  <path class="cls-1" d="M447.53,195.27c-15.41,.02-26.78,10.96-26.68,25.66,.1,14.75,11.03,25.26,26.3,25.28,15.86,.02,27.08-10.48,26.97-25.25-.12-15.13-11.06-25.71-26.58-25.7h-.01Z"/>
</svg>