<?xml version="1.0" encoding="UTF-8"?>
<svg id="Layer_1" data-name="Layer 1" xmlns="http://www.w3.org/2000/svg" viewBox="0 0 655.34 655.34">
  <defs>
    <style>
      .cls-1 {
        fill: #ece1dd;
      }
    </style>
  </defs>
  <path class="cls-1" d="M601.3,541.07c-21.34,72.99-140.31,75.36-187.85,27.14-10.05-11.35-16.34-17.28-22.33-30.38,16.85-9.69,33.46-19.28,49.85-28.76,13.35,20.53,25.7,31.81,47.91,36.43,30.14,3.68,60.45-6.68,53.65-38.68-6.99-26.14-61.7-32.5-98.95-60.46-37.81-25.39-46.67-87.09-15.59-122.34,10.35-13.04,28.01-22.77,46.53-27.45,6.43-.81,12.91-1.68,19.34-2.5,37.12-.75,60.33,9.05,77.36,28.08,4.74,4.8,8.6,9.98,15.84,21.21-19.78,12.6-19.71,12.48-48.04,30.82-6.05-13.03-16.09-21.21-26.7-24.76-16.47-4.99-37.24,.44-41.55,17.84-1.5,5.37-1.18,10.35,1.18,19.22,6.68,15.22,29.07,21.84,49.16,31.07,57.83,23.45,77.36,48.6,82.16,78.54,4.62,25.77-1.12,42.49-2,44.98h.03Zm-254.66,17.34c-9.67,19.65-28.14,32.57-49.53,38.8-32.88,7.55-64.32,3.25-87.72-10.79-15.65-9.6-27.88-24.39-36.18-41.42,16.66-10.17,33.25-20.4,49.91-30.57,.44,.18,1.75,2.55,3.5,5.62,6.36,10.66,11.85,18.21,22.65,23.52,10.6,3.62,33.87,5.93,42.86-12.72,5.48-9.49,3.74-39.99,3.74-73.74,0-53.03,.25-105.84,.25-158.27h61.39c0,57.67,.31,112.29,0,168.57,.13,34.5,3.12,65.25-10.85,91.02h0l-.02-.02ZM0,0V655.34H655.34V0H0Z"/>
</svg>