<?xml version="1.0" encoding="UTF-8"?>
<svg id="Layer_1" data-name="Layer 1" xmlns="http://www.w3.org/2000/svg" viewBox="0 0 655.34 655.32">
  <defs>
    <style>
      .cls-1 {
        fill: #ece1dd;
      }
    </style>
  </defs>
  <path class="cls-1" d="M558.42,558.42h-97.13v-152.09c0-36.27-.67-82.91-50.51-82.91s-58.34,39.5-58.34,80.29v154.71h-97.11V245.68h93.22v42.73h1.3c12.98-24.59,44.69-50.51,91.97-50.51,98.43,0,116.6,64.77,116.6,148.97v171.54h0ZM145.78,202.93c-31.15,0-56.37-25.25-56.37-56.37s25.21-56.34,56.37-56.34,56.33,25.25,56.33,56.34-25.26,56.37-56.33,56.37h0Zm48.58,355.49H97.16V245.68h97.2v312.73h0ZM606.83,0H48.37C21.68,0,0,21.15,0,47.22V608.04c0,26.1,21.68,47.28,48.37,47.28H606.83c26.74,0,48.51-21.18,48.51-47.28V47.22c0-26.07-21.78-47.22-48.51-47.22h0Z"/>
</svg>