<?xml version="1.0" encoding="UTF-8"?>
<svg id="Layer_1" data-name="Layer 1" xmlns="http://www.w3.org/2000/svg" viewBox="0 0 294.52 655.36">
  <defs>
    <style>
      .cls-1 {
        fill: #ece1dd;
        fill-rule: evenodd;
      }
    </style>
  </defs>
  <path class="cls-1" d="M163.2,562.81c-1.48-3.24-2.95-6.48-4.44-9.72,1.48,3.24,2.96,6.48,4.44,9.72,2.18,1.85,4.34,3.71,6.52,5.57-2.18-1.86-4.34-3.72-6.52-5.57h0Zm130.09-272.16c-2.04-26.4-8.25-51.86-16.88-76.81-17.88-55.69-46.58-104.99-87-147.4-10.22-10.73-21.59-20.56-28.71-33.9-4.51-8.45-8.8-17-13.19-25.52-.82-2.05-1.63-4.1-2.78-7.02-.47,1.61-.77,2.18-.78,2.76-.36,13.87-8.22,23.28-18.01,32.07-11.01,9.88-21.25,20.61-31.83,30.97-10.85,14.27-21.69,28.53-32.53,42.79-8.78,16.12-17.54,32.24-26.31,48.37-5.86,15.83-11.72,31.67-17.58,47.5-.18,.24-.45,.47-.53,.74C7.47,236.99,2.69,269.68,.34,302.7c-.88,12.41,.13,25,.83,37.47,.99,17.83,4.1,35.36,8.74,52.61,16.87,62.68,51.13,114.68,97.96,158.86,8.7,8.21,17.63,15.67,26.72,23.48,1.55-5.32,2.79-10.64,4.2-15.96h0c1.41-5.3,2.84-10.57,3.8-15.87-.96,5.31-2.03,10.58-3.1,15.87-1.55,5.32-3,10.64-4.55,15.96,1.34,4.6,2.73,9.19,4.07,13.79,1.25,7.13,2.52,14.27,3.77,21.41,.6,7.44,1.21,14.89,1.8,22.34-.02,4.54-.2,9.09,.08,13.61,.07,1.16,1.59,2.23,2.44,3.35,2.53,.89,5.06,1.77,7.58,2.66,2.28,.89,4.56,1.77,7.9,3.08-.51-7.45-.93-13.65-1.36-19.86-.02-6.52-.04-13.04-.06-19.56,.91-9.93,1.82-19.86,2.73-29.79,.66-2.17,1.32-4.33,1.98-6.49,1.88-3.35,3.77-6.69,5.66-10.04,6.98-5.62,14.49-10.72,20.86-16.98,11.52-11.32,23.01-22.79,33.32-35.18,13.38-16.08,24.89-33.63,34.13-52.45,6.18-12.59,12.01-25.43,16.82-38.59,4.24-11.59,6.87-23.78,10.22-35.71,.29-.86,.69-1.7,.88-2.58,6.9-32.2,8.06-64.72,5.52-97.47h0Z"/>
</svg>