<?xml version="1.0" encoding="UTF-8"?>
<svg id="Layer_1" data-name="Layer 1" xmlns="http://www.w3.org/2000/svg" viewBox="0 0 655.34 655.34">
  <defs>
    <style>
      .cls-1 {
        fill: #ece1dd;
      }
    </style>
  </defs>
  <polygon class="cls-1" points="0 357.45 0 0 245.75 178.73 245.75 297.88 81.92 178.73 81.92 417.03 0 357.45 0 357.45"/>
  <polygon class="cls-1" points="245.75 178.73 491.5 0 491.5 357.45 327.67 476.61 245.75 417.03 409.59 297.88 409.59 178.73 245.75 297.88 245.75 178.73 245.75 178.73"/>
  <polygon class="cls-1" points="245.75 417.03 245.75 536.18 409.59 655.34 409.59 536.18 245.75 417.03 245.75 417.03"/>
  <path class="cls-1" d="M573.42,178.73V59.58L655.34,0V119.15l-81.92,59.58h0Zm-163.84,476.61l245.75-178.73V238.31l-81.92,59.58v119.15l-163.84,119.15v119.15h.01Z"/>
</svg>