<?xml version="1.0" encoding="UTF-8"?>
<svg id="Layer_1" data-name="Layer 1" xmlns="http://www.w3.org/2000/svg" viewBox="0 0 579.9 655.34">
  <defs>
    <style>
      .cls-1 {
        fill: #ece1dd;
      }
    </style>
  </defs>
  <path class="cls-1" d="M556.47,145.21L317.24,6.44c-15.07-8.58-34.82-8.58-50.01,0L26.12,145.21C10.57,154.16,0,170.98,0,188.97V466.14c0,17.99,10.8,34.81,26.35,43.81l63.57,36.25c30.5,15.02,38.95,15.02,52.83,15.02,45.17,0,68.62-27.31,68.62-74.94V212.63c0-3.86,2.41-9.61-1.39-9.61h-30.47c-3.86,0-11.5,5.75-11.5,9.61V486.27c0,21.12-19.6,42.13-55.3,24.28l-65.7-38.01c-2.28-1.25-3.66-3.76-3.66-6.41V188.97c0-2.61,2.51-5.23,4.82-6.57L288.69,43.86c2.25-1.28,5.43-1.28,7.67,0l238.26,138.5c2.28,1.37,1.92,3.91,1.92,6.61V466.14c0,2.65,.49,5.22-1.76,6.49l-239.18,138.62c-2.05,1.22-4.72,1.22-6.97,0l-61.33-36.58c-1.85-1.08-4.08-1.46-5.85-.47-17.04,9.66-20.21,10.94-36.2,16.49-3.93,1.37-9.75,3.75,2.21,10.45l80.2,47.44c7.67,4.45,16.41,6.75,25.19,6.75s17.6-2.3,25.28-6.75l238.34-138.64c15.56-9.06,23.43-25.82,23.43-43.81V188.97c0-17.99-7.87-34.76-23.43-43.75h0Z"/>
  <path class="cls-1" d="M367.05,422.22c-63.55,0-77.54-17.53-82.22-49.14-.55-3.4-3.44-7.47-6.9-7.47h-31.06c-3.84,0-6.94,4.66-6.94,8.49,0,40.46,22,89.49,127.11,89.49,76.08,0,119.71-29.56,119.71-81.89s-35.05-65.49-108.84-75.26c-74.59-9.86-82.16-14.84-82.16-32.31,0-14.41,6.42-33.62,61.64-33.62,49.34,0,67.53,10.59,75.01,43.85,.65,3.13,3.5,5.37,6.73,5.37h31.18c1.91,0,3.75-.77,5.09-2.14,1.31-1.48,1.99-3.32,1.82-5.3-4.83-57.28-42.89-83.97-119.84-83.97-68.46,0-109.29,28.91-109.29,77.37,0,52.56,40.63,67.09,106.34,73.58,78.61,7.71,84.73,19.19,84.73,34.66,0,26.85-21.56,38.3-72.13,38.3h0Z"/>
</svg>