<?xml version="1.0" encoding="UTF-8"?>
<svg id="Layer_1" data-name="Layer 1" xmlns="http://www.w3.org/2000/svg" viewBox="0 0 655.34 656.82">
  <defs>
    <style>
      .cls-1 {
        fill: #ece1dd;
        fill-rule: evenodd;
      }
    </style>
  </defs>
  <path class="cls-1" d="M585.02,592.67c-169.77-.2-339.48-.16-509.25-.16-8.19,0-8.16-.01-8.16-8.46V75.39c0-8.35-.08-6.3,8.2-6.3h508.66c8.52,0,8.45-2.06,8.45,6.71v254.01c0,84.88-.04,169.76,.19,254.65,.02,6.46-1.5,8.21-8.09,8.21h0ZM651.26,.06C462.86,0,275.31,0,86.9,0,59.95,0,32.54-.02,5.6,.06,3.89,.06,0,.86,0,1.29V656.82H655.34V1.29c0-.43-2.15-1.23-4.08-1.23h0Z"/>
  <path class="cls-1" d="M280.17,318.68c-16.61,8.1-34.27,7.9-52.04,5.5-1.38-.19-3.51-2.66-3.52-4.08-.21-27.72-.16-55.45-.16-83.93,16.29-2.54,31.72-3.78,47.14,.09,19.1,4.8,30.19,17.26,32.25,35.98,2.27,20.56-6.49,38.06-23.67,46.44h0Zm10.16-116.22c-34.68-8.13-69.59-4.12-104.47-.56-7.4,.76-8.82,3.93-8.8,10.5,.23,79.09-.23,158.19-.23,237.28v4.29h46.81v-92.9c26.01,1.95,49.81,1.49,73.07-6.81,37.29-13.3,55.92-42.19,53.91-84.36-1.63-34.06-23.02-58.7-60.3-67.44h0Z"/>
  <path class="cls-1" d="M453.37,355.64c-7.64-4.18-16.02-7-23.96-10.68-7.33-3.4-14.73-6.74-21.71-10.8-4.86-2.82-7.07-7.76-7.07-13.58,0-9.84,6.73-17.77,18.22-18.71,8.58-.7,17.48,.18,25.98,1.77,7.16,1.33,13.94,4.68,21.23,7.26,3.05-10.81,6.04-21.42,9.19-32.61-17.4-8.45-35.1-11.63-53.49-10.98-15.63,.55-30.24,4.53-43.44,13.52-24.67,16.8-36.7,61.41,.27,85.38,9.39,6.09,20.25,9.91,30.43,14.78,6.34,3.03,12.94,5.61,18.94,9.22,7.55,4.55,10.12,11.95,8.81,20.49-1.29,8.4-6.92,13.72-14.75,14.95-8.74,1.37-18.03,2.26-26.62,.75-12.17-2.14-23.92-6.66-36.27-10.29-2.21,8.27-4.32,17.42-7.2,26.32-1.58,4.88-.65,7.29,4.13,9.19,29.22,11.61,58.95,13.99,88.85,3.73,22.34-7.67,35.97-23.53,37.74-47.69,1.73-23.54-8.88-40.83-29.27-52.01h-.01Z"/>
</svg>