<?xml version="1.0" encoding="UTF-8"?>
<svg id="Layer_1" data-name="Layer 1" xmlns="http://www.w3.org/2000/svg" viewBox="0 0 655.34 655.31">
  <defs>
    <style>
      .cls-1 {
        fill: #ece1dd;
        fill-rule: evenodd;
      }
    </style>
  </defs>
  <path class="cls-1" d="M635.97,402.04c-.37,4.92-2.69,9.14-6.05,12.74-15.89,17.01-35.82,27.33-58.62,32.41-8.66,1.93-17.6,2.93-26.47,3.72-7.55,.68-15.21,.79-22.79,.52-5.57-.2-11.09-1.44-16.79-2.23-.56,5.05-1.11,10.32-1.77,15.57-.84,6.72-1.82,13.42-2.66,20.14-.8,6.38-1.42,12.79-2.25,19.17-.81,6.19-1.82,12.36-2.66,18.55-.79,5.76-1.37,11.56-2.25,17.31-1.36,8.82-2.65,17.66-4.42,26.41-2.13,10.46-5.39,20.58-10.71,30.02-6.49,11.51-15.69,20.29-27.41,26.78-12.07,6.69-25.28,10.18-38.65,13.09-9.47,2.06-19.22,2.4-28.82,1.56-16.64-1.46-30.83-8.37-41.57-20.9-10.24-11.95-17.17-25.65-19.65-41.16-1.19-7.37-2.04-14.81-2.72-22.24-.75-8.27-1.26-16.56-1.65-24.84-.49-10.52-.86-21.04-1.1-31.57-.29-12.94-.39-25.88-.57-38.81,0-.32-.05-.65-.03-.49-6.78,3.95-13.44,8.27-20.51,11.83-8.27,4.17-17.26,6.59-26.57,7.28-7.3,.54-14.69,1.03-21.96,.46-11.91-.93-23.81-2.74-34.47-8.44-4.33-2.31-8.84-5.13-11.82-8.82-7.14-8.85-3.72-20.03,7.05-25.42,7.44-3.73,15.57-5.28,23.64-7.09,7.01-1.58,13.99-3.37,20.83-5.53,6.76-2.15,11.04-7.48,15.25-12.71,2.19-2.72,4.37-5.45,6.68-8.34-2.78-.28-5.4-.57-8.04-.81-7.97-.73-15.57-2.86-22.84-5.99-6.22-2.67-6.31-2.96-10.88,1.85-7.62,8.03-15.02,16.26-22.49,24.42-5.49,6.01-10.95,12.05-16.42,18.07-5.41,5.96-10.48,12.26-16.32,17.8-8.67,8.23-19.1,13.18-31.55,12.62-8-.36-15.31-3.08-21.89-7.52-13.58-9.18-22.73-22.03-31.06-35.52-10.67-17.29-18.86-35.71-25.87-54.63-4.85-13.08-9.72-26.17-13.96-39.43-4.6-14.42-8.64-29.01-12.62-43.61-3-11.01-5.67-22.12-8.21-33.24-2.89-12.65-5.67-25.33-8.11-38.07-1.65-8.6-2.61-17.32-3.94-25.98-1.8-11.67-2.13-23.45-1.47-35.16,.58-10.56,2.14-21.08,3.69-31.57,2.14-14.51,7.07-28.2,14.15-41.13,4.34-7.92,9.72-15.12,15.94-21.81,10.22-10.98,22.58-18.92,36.35-24.88,9.61-4.16,19.77-6.67,30.12-8.62,15.36-2.9,30.86-2.79,46.37-2.48,6.78,.13,13.53,1.33,20.3,1.99,14.58,1.41,28.87,4.39,42.99,8.07,10.28,2.68,20.36,6.15,30.55,9.16,1.02,.3,2.53,.27,3.37-.26,13.82-8.76,28.92-14.54,45-17.85,6.09-1.26,12.39-1.8,18.62-2.19,7.58-.47,15.22-.9,22.79-.48,9.09,.51,18.15,1.81,27.19,3.01,4.39,.58,8.67,2.06,13.06,2.46,2.1,.19,4.34-1.3,6.56-1.8,11.35-2.54,22.64-5.38,34.1-7.39,8.52-1.49,17.23-2.2,25.9-2.68,9.66-.54,19.39-.93,29.06-.48,12.21,.57,24.33,2.26,36.3,4.97,14.82,3.35,29.05,8.22,42.56,14.97,10.1,5.05,19.7,10.9,28.35,18.09,5.67,4.72,11.46,9.38,16.58,14.64,6.31,6.49,12.75,12.97,16.71,21.28,2.98,6.26,5.11,12.75,5.69,19.61,.73,8.53,1.62,17.09,1.53,25.63-.07,8.17-1.22,16.33-2.04,24.48-1.85,18.57-6.01,36.74-11.06,54.67-4.18,14.81-9.05,29.46-14.34,43.93-4.87,13.34-10.48,26.44-16.16,39.49-4.19,9.65-8.71,19.19-13.61,28.52-9.28,17.67-18.95,35.16-30.12,51.8-1.93,2.87-3.75,5.82-5.64,8.76,4.87,3.2,10.39,4.32,15.95,4.9,5.29,.56,10.68,.89,15.97,.51,8.46-.61,16.88-1.78,25.29-2.92,8.33-1.13,16.49-3.43,25.05-2.82,8.54,.6,14.65,6.9,14.07,14.67h0l-.03-.02Zm18.9-5.28c-2.49-15.69-16.07-25.97-31.85-26.66-5.71-.25-11.52,.33-17.22,1.03-6.89,.85-13.68,2.35-20.55,3.35-4.75,.69-9.56,1-14.3,1.48-.09-.43-.16-.54-.12-.6,8.85-16.23,18.07-32.28,26.44-48.74,6.42-12.63,11.92-25.71,17.59-38.69,9.4-21.5,16.9-43.67,23.11-66.19,5.95-21.57,11.05-43.37,12.65-65.75,.64-8.94,1.09-17.91,1.04-26.86-.04-7.14-.84-14.28-1.57-21.4-.84-8.15-3.37-15.88-6.88-23.32-4.63-9.8-11.8-17.84-19.36-25.47-6.04-6.11-12.7-11.68-19.29-17.25-9.4-7.94-19.97-14.28-30.96-19.91-12.48-6.4-25.59-11.4-39.26-14.78-8.27-2.05-16.72-3.57-25.1-5.2-3-.58-6.02-1.8-9.03-1.8h-56.71c-2.05,0-4.08,1.03-6.15,1.26-13.58,1.47-27,3.95-40.03,7.87-4.87,1.47-9.33,.54-13.95,.13-3.55-.32-7.04-1.24-10.59-1.41-13.52-.66-27.06-1.62-40.58-1.48-12.95,.13-25.77,2.2-38.31,5.66-10.49,2.89-20.76,6.43-30.16,11.78-4.02,2.29-7.22,1.86-11.38,.7-13.99-3.92-28.09-7.6-42.3-10.7-8.86-1.93-17.97-2.88-27.02-3.8-8.68-.87-17.41-1.4-26.13-1.58-8.52-.18-17.1-.17-25.57,.56-13.51,1.17-26.76,3.84-39.64,8.14-14.3,4.78-27.42,11.7-39.24,20.78-12,9.22-21.63,20.48-29.37,33.34-8.16,13.57-13.75,28.09-17.23,43.34-1.88,8.27-3.07,16.76-4.36,25.16-.41,2.6,4.05,5.22-1.49,7.82v36.54c5.54,2.43,1.15,4.86,1.47,7.29,.76,5.86,1.45,11.76,2.46,17.57,1.61,9.2,3.53,18.37,5.47,27.51,2.72,12.77,5.55,25.53,8.57,38.24,2.19,9.25,4.69,18.44,7.3,27.59,3.99,13.97,7.93,27.97,12.44,41.78,4.19,12.84,8.99,25.49,13.76,38.14,6.6,17.51,14.5,34.44,23.97,50.68,8.19,14.06,17.55,27.22,30.1,38.05,8.27,7.14,17.48,12.62,28.2,15.36,8.42,2.15,16.98,2.41,25.6,.7,10-1.99,18.85-6.17,26.72-12.43,.9-.72,1.89-1.27,2.96,.05,4.07,5,9.52,8.35,15.22,11.23,15.38,7.79,32.14,10.12,49.16,11.07,4.12,.23,8.28-.34,12.44-.46,8.09-.22,15.95-1.75,23.69-3.92,4.06-1.14,8.02-2.59,12.14-3.94,.22,4.26,.49,8.37,.62,12.48,.23,7.47,.34,14.94,.57,22.4,.11,3.41,.24,6.83,.57,10.22,.84,8.75,1.66,17.5,2.73,26.23,.75,6.01,1.53,12.07,2.98,17.94,2.94,11.85,6.9,23.38,11.95,34.56,4.96,10.98,12.08,20.24,21.6,27.88,12.29,9.87,26.7,14.08,42.26,14.86,6.44,.32,13.05,.02,19.39-1.1,10.04-1.77,20.06-4,29.83-6.86,19.89-5.83,37.08-15.9,49.92-32.16,7.31-9.28,13.31-19.3,17.17-30.38,3.18-9.15,6.17-18.39,8.56-27.75,1.88-7.38,2.81-14.99,3.95-22.52,.76-4.98,1.21-10.02,1.69-15.04,.78-8.16,1.57-16.31,2.13-24.48,.39-5.69,.37-11.4,.6-17.1,.07-1.74,.37-3.46,.53-5.19,.16-1.6,.99-2.16,2.67-2.13,5.94,.09,11.87,.24,17.79-.02,6.63-.29,13.32-.56,19.84-1.63,9.29-1.51,18.53-3.42,27.64-5.74,10.76-2.73,20.62-7.62,30.13-13.2,11.06-6.49,21.15-14.11,29.33-23.91,7.12-8.54,10.49-18.43,8.78-29.23h-.03Z"/>
  <path class="cls-1" d="M514.07,384.01c-3.63-4.55-7.33-9.04-10.88-13.65-5.57-7.23-9.57-15.3-13.6-23.41-3.81-7.68-8.48-14.96-12.5-22.56-7-13.26-14.13-26.47-20.59-39.98-8.11-16.98-14.51-34.55-16.53-53.36-.85-7.96-1.07-15.91,.59-23.79,2.65-12.59,9.43-22.43,20.81-29.19,10.57-6.27,22.33-8.28,34.38-8.92,7.48-.39,15-.07,22.77-.07-.06-.28-.04-.83-.26-1.27-4.83-9.8-9.34-19.77-14.63-29.34-7.45-13.51-16.99-25.69-27.61-36.98-7.87-8.36-16.39-16.12-25.73-22.98-9.18-6.75-18.86-12.78-29.17-17.71-12.31-5.88-25.13-10.42-38.58-13.32-12.93-2.78-25.93-4.49-39.19-4.63-11.31-.12-22.54,.38-33.56,2.85-16.62,3.74-31.83,10.38-45.06,21.15-7.39,6.01-13.83,12.76-19.48,20.27-6.62,8.83-11.97,18.37-16.54,28.38-6.27,13.72-10.58,28-13.52,42.69-1.47,7.32-2.62,14.7-3.79,22.08-.42,2.58-.44,5.22-.68,8.18,2.04-1.03,3.51-1.83,5.02-2.54,1.61-.75,3.27-1.41,4.9-2.13,16.57-7.36,33.74-12.1,52.2-11.56,7.84,.23,15.35,1.74,22.32,5.07,13.37,6.4,21.2,17.3,24.6,31.07,2.35,9.51,3.95,19.21,5.52,28.89,1.22,7.56,2.48,15.19,2.62,22.81,.2,11.14-.38,22.3-1,33.43-.53,9.49-2.57,18.82-5.98,27.67-6.2,16.09-13.11,31.93-19.57,47.93-2.13,5.29-3.77,10.76-5.79,16.57,3.11,0,5.64-.02,8.16,.01,.98,.02,1.99,.04,2.95,.26,7.42,1.7,13.86,4.96,19.13,10.51,7.03,7.38,10.73,15.98,10.92,25.95,.1,5.52-.49,11.06-.47,16.58,.11,25.74,.31,51.47,.53,77.21,.04,4.21,.25,8.42,.56,12.61,.65,8.79,1.3,17.59,2.18,26.36,.63,6.22,1.48,12.43,2.5,18.61,1.43,8.75,5.54,16.55,10.19,23.99,4.01,6.4,9.22,11.85,16.09,15.6,11.67,6.38,24.23,6.91,36.9,4.56,8.56-1.59,16.96-4.14,25.26-6.76,8.19-2.59,15.59-6.82,21.8-12.66,5.82-5.48,9.95-12.16,12.74-19.53,5.4-14.3,7.09-29.36,9.32-44.29,.84-5.59,1.56-11.2,2.33-16.8,.87-6.37,1.75-12.75,2.59-19.12,.62-4.75,1.19-9.51,1.78-14.25,.85-6.82,1.76-13.63,2.57-20.45,.63-5.28,1.16-10.57,1.71-15.86,.71-6.76,1.48-13.51,2.09-20.27,.48-5.13,.28-10.36,1.22-15.4,1.72-9.24,6.22-17.1,14.66-22.18,3.52-2.12,7.51-3.52,11.42-5.32-.2-.31-.4-.67-.66-1h.04Z"/>
  <path class="cls-1" d="M195.1,346.09c-4.21-9.69-6.74-19.79-7.5-30.23-.71-9.81,.49-19.59,1.53-29.36,1.01-9.46,1.84-18.97,2.14-28.48,.49-15.63-.6-31.23-1.37-46.85-.47-9.3,.65-18.71,1.5-28.03,.77-8.39,1.73-16.81,3.37-25.08,2.74-13.88,6.38-27.56,11.55-40.82,4.91-12.57,10.56-24.82,18.52-35.84,5.47-7.56,11.66-14.62,17.61-22.01-.28-.1-1.02-.38-1.77-.61-19.37-5.97-39.06-10.64-59.31-12.68-9.57-.96-19.18-1.53-28.79-2.08-2.95-.17-5.94,.22-8.9,.49-7.32,.68-14.73,.95-21.94,2.28-12.26,2.27-24.02,6.07-34.91,12.27-9.78,5.57-17.99,12.76-24.88,21.39-7.6,9.53-12.71,20.3-16.38,31.79-4.34,13.56-6.4,27.51-6.96,41.59-.48,12.34-.73,24.75,1.46,37.04,1.63,9.15,2.72,18.4,4.53,27.52,2.45,12.42,5.08,24.83,8.12,37.13,4.35,17.6,8.69,35.24,13.84,52.63,4.93,16.66,10.49,33.18,16.52,49.49,4.92,13.31,10.63,26.38,16.63,39.27,3.91,8.4,8.64,16.48,13.61,24.35,5.28,8.35,11.28,16.28,19.43,22.34,10.28,7.65,18.24,8.84,28.68,.45,4.47-3.6,8.26-8.04,12.16-12.27,6.19-6.72,12.16-13.62,18.31-20.37,7.84-8.59,15.78-17.09,23.67-25.65,1.66-1.81,3.27-3.67,4.88-5.5-.95-.81-1.85-1.51-2.68-2.28-9.79-9.14-17.38-19.73-22.67-31.9h0Z"/>
  <path class="cls-1" d="M492.42,90.29c6.4,7.29,12.6,14.8,18.32,22.6,11.08,15.1,19.93,31.42,26.45,48.87,2.88,7.69,5.18,15.45,4.16,23.87-.71,5.89-.65,11.88-1.19,17.8-.45,4.93-1.25,9.83-1.91,14.75-.98,7.41-2.41,14.8-2.84,22.24-.41,7.08,.01,14.24,.48,21.34,.46,7.21,1.46,14.39,2.14,21.59,.77,8.16,1.81,16.32,2.04,24.5,.19,6.72-.42,13.47-1.02,20.18-.72,8.08-2.83,15.9-5.98,23.39-2.22,5.28-4.85,10.4-7.35,15.69,.25,.27,.6,.68,1,1.03,.44,.38,.93,.71,1.53,1.14,.58-1.01,1.01-1.87,1.53-2.67,12.95-19.83,24.48-40.42,34.46-61.8,6.42-13.76,12.43-27.72,18.2-41.76,8.99-21.86,16.11-44.32,21.61-67.24,2.47-10.29,4.36-20.73,6.04-31.17,1.31-8.16,2.39-16.42,2.64-24.66,.26-8.74-.24-17.55-1.07-26.26-.62-6.58-2.29-13.2-6.54-18.56-6.83-8.61-14.2-16.85-23.26-23.37-7.63-5.49-15.23-11.12-23.43-15.74-12.99-7.32-27.04-12.18-41.73-15.5-14.33-3.24-28.85-4.64-43.47-4.94-8.62-.18-17.27,.72-25.87,1.51-7.79,.71-15.53,1.92-23.38,2.92,8.42,4.6,16.72,8.68,24.55,13.5,16.46,10.13,31.22,22.32,43.88,36.73h0v.02Z"/>
  <path class="cls-1" d="M258.66,212.01c-2.23-4.54-.95-8.3,4.21-10.04,1.25-.43,2.55-.89,3.86-1.01,1.79-.17,3.62-.04,5.44-.04,6.55,.03,12.85,.92,18.25,4.96,3.47,2.59,4.4,6.03,2.15,9.57-3.18,5.01-8.04,7.53-14.01,8.01-9.4,.76-15.99-3.49-19.9-11.45h0Zm19.86,161.79c5.32-16.52,12.57-32.3,19.59-48.18,5.69-12.87,8.81-26.43,9.84-40.36,.51-6.87,.38-13.82,.02-20.71-.39-7.65-1.02-15.33-2.17-22.9-1.47-9.68-3.16-19.37-5.52-28.88-2.55-10.28-9-17.45-20.06-20.09-6.73-1.61-13.42-1.54-20.23-.5-16.62,2.54-31.84,8.49-46.01,17.2-2.85,1.75-4.42,3.17-3.93,7.14,1.04,8.42,1.26,16.97,1.22,25.46-.06,12.02-.58,24.05-1.05,36.07-.16,3.91-.74,7.81-1.17,11.71-.66,5.97-1.94,11.93-1.9,17.89,.04,6.14,.69,12.43,2.22,18.37,4.87,18.86,15.2,34.29,32.11,45.18,10.41,6.7,21.92,10.07,34.56,10.71,.85-2.82,1.62-5.48,2.46-8.11h.02Z"/>
  <path class="cls-1" d="M504.27,204.54c-2.45,6.57-7.69,10.29-14.5,11.38-6.34,1.01-11.9-1.26-16.02-6.17-2.94-3.5-1.82-7.64,2.59-10,5.06-2.72,10.62-3.41,17.19-3.82,1.78,.31,4.47,.58,7.02,1.29,3.7,1.02,5.07,3.73,3.72,7.33h0Zm14.89,5.81c.75-6.04,1.36-12.11,2.13-18.15,.3-2.43-1.01-3.09-3.11-3.15-6.6-.18-13.2-.4-19.8-.52-7.44-.13-14.69,1.03-21.57,3.78-7.64,3.06-13.46,7.95-15.84,16.02-1.77,6.02-2.25,12.04-1.62,18.34,.95,9.6,3.15,18.91,6.61,27.83,4.62,11.94,9.45,23.88,15.23,35.32,7.83,15.49,16.67,30.49,24.99,45.75,2.23,4.07,4.09,8.32,6.41,13.07,4.85-9.96,7.2-19.94,7.48-30.23,.23-8.66-.49-17.35-1.01-26.02-.32-5.3-1.1-10.57-1.62-15.86-.74-7.37-1.87-14.74-2.04-22.13-.17-7.51,.38-15.07,1.04-22.57,.63-7.19,1.85-14.32,2.74-21.49h-.02Z"/>
  <path class="cls-1" d="M308.11,407.05c-3.63-2.87-8.42-3.05-11.87,.11-4.28,3.92-8.05,8.42-11.81,12.84-4.35,5.11-8.42,10.43-14.03,14.39-8.16,5.76-17.68,8.15-27.24,10.4-7.6,1.8-15.24,3.46-22.87,5.19-.03,.32-.06,.64-.09,.96,2.26,1.02,4.45,2.28,6.82,3.01,11.63,3.58,23.46,5.36,35.75,4.34,8.87-.73,17.32-2.61,25.33-6.3,11.03-5.07,19.5-13.1,26.71-22.45,1.2-1.56,1.76-3.86,1.89-5.88,.49-7.09-3.23-12.37-8.59-16.62h0Z"/>
  <path class="cls-1" d="M594.7,409.88c-9.36,.97-18.73,2-28.12,2.53-4.53,.25-9.13-.59-13.7-.95-7.67-.6-15.16-2.26-21.64-6.24-3.75-2.3-6.88-2.55-10.86-1.25-5.7,1.86-10.34,4.69-11.72,10.68-.93,4.05-1.27,8.24-1.64,12.39-.07,.73,.87,2.07,1.59,2.26,4.39,1.12,8.81,2.45,13.3,2.85,5.52,.48,11.13,.33,16.69,.06,6-.29,12.03-.67,17.94-1.63,13.93-2.27,27.4-5.97,39.37-13.64,4.32-2.77,8.59-5.6,12.88-8.4-.12-.2-.24-.4-.36-.59-4.57,.65-9.13,1.46-13.72,1.93h-.01Z"/>
</svg>