<?xml version="1.0" encoding="UTF-8"?>
<svg id="Layer_1" data-name="Layer 1" xmlns="http://www.w3.org/2000/svg" viewBox="0 0 648.18 655.34">
  <defs>
    <style>
      .cls-1 {
        fill: #ece1dd;
      }
    </style>
  </defs>
  <path class="cls-1" d="M235.68,107.51c-16.21,0-29.33-13.28-29.33-29.69s13.13-29.89,29.33-29.89,29.34,13.4,29.34,29.89-13.2,29.69-29.34,29.69h0Zm9.84,209.45h156.16c43.47,0,77.71-36.78,77.71-80.43V87.66c0-42.37-35.52-74.2-77.95-81.27C374.59,1.91,346.85-.12,320.12,0c-26.73,.12-51.48,2.4-73.93,6.38-66.17,11.68-77.4,36.15-77.4,81.27v57.93h155.31v21.42H108.68c-45.44,0-85.23,27.36-97.67,79.32-14.35,59.55-14.99,95.96,0,158.14,11.12,46.28,37.65,78.51,83.09,78.51h53.26v-69.88c0-51.61,45.14-96.14,98.16-96.14h0Z"/>
  <path class="cls-1" d="M411.52,544.11c16.22,0,29.34,13.28,29.34,29.71s-13.13,29.87-29.34,29.87-29.33-13.4-29.33-29.87,13.19-29.71,29.33-29.71h0Zm224.69-297.79c-11.24-45.24-32.68-79.32-78.18-79.32h-57.21v69.52c0,53.82-47.1,96.5-99.13,96.5H245.52c-42.77,0-76.74,39.23-76.74,82.08v148.88c0,42.36,36.12,67.28,77.45,79.44,49.49,14.55,96.36,17.18,155.58,0,39.36-11.4,77.58-34.33,77.58-79.44v-59.59h-155.31v-21.42h233.93c45.43,0,62.37-30.93,78.18-78.51,16.31-48.98,15.62-95.32,0-158.14h0Z"/>
</svg>