<?xml version="1.0" encoding="UTF-8"?>
<svg id="Layer_1" data-name="Layer 1" xmlns="http://www.w3.org/2000/svg" viewBox="0 0 655.33 584.59">
  <defs>
    <style>
      .cls-1 {
        fill: #ece1dd;
      }
    </style>
  </defs>
  <path class="cls-1" d="M327.67,232.71c-32.9,0-59.58,26.67-59.58,59.58s26.67,59.58,59.58,59.58,59.58-26.67,59.58-59.58-26.67-59.58-59.58-59.58h0Z"/>
  <path class="cls-1" d="M543.53,362.62c-10.53,4.01-21.72,7.68-33.45,11.02-8.23-26.34-18.85-53.7-31.59-81.36,12.73-27.63,23.34-54.96,31.57-81.27,72.13,20.57,115.5,51.92,115.5,81.27,0,24.84-29.9,50.48-82.02,70.33h-.01Zm-47.02,81.45c8.87,55.07,1.61,93.78-19.9,106.2-5.21,3.01-11.43,4.54-18.47,4.54-31.48,0-70.78-25.85-109.63-64.14,18.49-20.04,36.83-42.8,54.51-67.75,30.34-2.8,59.36-7.28,86.31-13.32,2.98,11.83,5.39,23.36,7.18,34.48h0Zm-317.78,106.19c-21.52-12.42-28.77-51.13-19.9-106.2,1.79-11.12,4.2-22.65,7.18-34.48,26.94,6.05,55.96,10.53,86.3,13.32,17.68,24.95,36.03,47.71,54.51,67.75-38.84,38.29-78.15,64.14-109.62,64.14-7.14,0-13.18-1.49-18.47-4.54h0ZM29.79,292.29c0-24.84,29.89-50.48,82.02-70.34,10.53-4.01,21.72-7.68,33.45-11.02,8.23,26.34,18.85,53.7,31.59,81.36-12.73,27.63-23.34,54.96-31.56,81.27-72.13-20.57-115.49-51.92-115.49-81.27h0ZM158.83,140.52c-8.87-55.07-1.61-93.78,19.9-106.2,5.21-3.01,11.43-4.54,18.47-4.54,31.48,0,70.78,25.85,109.62,64.14-18.49,20.04-36.83,42.8-54.51,67.75-30.34,2.8-59.36,7.28-86.31,13.32-2.98-11.83-5.39-23.36-7.18-34.48h0Zm284.93,84.76c-6.18-10.7-12.53-21.11-19-31.26,20.01,2.55,38.85,5.84,56.38,9.74-5.51,17.45-12.14,35.4-19.8,53.62-5.58-10.71-11.42-21.43-17.58-32.09h0Zm-116.09-109.59c12.31,13.57,24.4,28.15,36.03,43.35-11.89-.51-23.9-.79-36.03-.79s-24.14,.29-36.04,.79c11.63-15.2,23.73-29.78,36.04-43.35h0Zm-133.67,141.67c-7.66-18.24-14.3-36.21-19.82-53.68,17.89-3.96,36.78-7.2,56.41-9.68-6.47,10.16-12.83,20.57-19.01,31.27-6.16,10.67-12,21.38-17.58,32.09h0Zm36.58,133.22c-20.01-2.55-38.85-5.84-56.38-9.74,5.51-17.45,12.14-35.4,19.8-53.61,5.58,10.71,11.42,21.42,17.58,32.09,6.18,10.7,12.53,21.11,19,31.26h0Zm97.09,78.32c-12.31-13.57-24.4-28.15-36.04-43.35,11.89,.51,23.91,.8,36.04,.8s24.14-.29,36.03-.8c-11.63,15.2-23.73,29.78-36.04,43.35h.01Zm133.67-141.67c7.66,18.24,14.3,36.21,19.82,53.68-17.89,3.96-36.78,7.2-56.41,9.68,6.47-10.16,12.83-20.57,19.01-31.27,6.16-10.67,12-21.38,17.58-32.09h0Zm-43.38,17.2c-9.62,16.67-20.29,33.5-31.65,50-19.11,1.4-38.72,2.12-58.64,2.12s-39.87-.76-58.65-2.14c-11.36-16.5-22.02-33.33-31.64-49.99-10.01-17.35-19.24-34.79-27.62-52.13,8.38-17.34,17.6-34.78,27.62-52.13,9.62-16.67,20.29-33.5,31.65-50,19.11-1.4,38.72-2.12,58.64-2.12s39.87,.76,58.65,2.14c11.36,16.5,22.02,33.33,31.64,49.99,10.01,17.35,19.24,34.79,27.62,52.13-8.38,17.34-17.6,34.78-27.62,52.13h0ZM476.61,34.33c21.51,12.42,28.77,51.13,19.9,106.2-1.79,11.12-4.2,22.65-7.18,34.48-26.94-6.05-55.96-10.53-86.31-13.32-17.68-24.95-36.03-47.71-54.51-67.75,38.84-38.29,78.15-64.14,109.63-64.14,7.14,0,13.18,1.48,18.47,4.54h0Zm77.52,159.79c-11.32-4.31-23.33-8.26-35.92-11.84,3.2-12.69,5.79-25.07,7.71-37.03,11.1-68.95-1.12-117.51-34.42-136.73-9.8-5.66-21.03-8.53-33.36-8.53-36.97,0-83.47,26.95-130.47,72.52C280.67,26.94,234.17,0,197.2,0c-12.34,0-23.56,2.87-33.36,8.53-33.3,19.22-45.52,67.78-34.42,136.73,1.93,11.96,4.51,24.34,7.71,37.03-12.59,3.58-24.6,7.53-35.92,11.84C35.94,218.98,0,253.84,0,292.29s35.94,73.31,101.2,98.17c11.32,4.31,23.33,8.26,35.92,11.84-3.2,12.7-5.79,25.07-7.71,37.03-11.1,68.95,1.12,117.51,34.42,136.73,9.8,5.66,21.03,8.53,33.36,8.53,36.97,0,83.47-26.95,130.47-72.53,47,45.58,93.5,72.53,130.47,72.53,12.34,0,23.56-2.87,33.36-8.53,33.29-19.22,45.52-67.78,34.42-136.73-1.92-11.96-4.51-24.34-7.71-37.03,12.6-3.57,24.61-7.52,35.92-11.84,65.26-24.86,101.21-59.73,101.21-98.17s-35.94-73.31-101.21-98.17h.01Z"/>
</svg>