<?xml version="1.0" encoding="utf-8"?>
<!-- Generator: Adobe Illustrator 27.0.0, SVG Export Plug-In . SVG Version: 6.00 Build 0)  -->
<svg version="1.1" id="Layer_1" xmlns="http://www.w3.org/2000/svg" xmlns:xlink="http://www.w3.org/1999/xlink" x="0px" y="0px"
	 viewBox="0 0 655.4 655.4" style="enable-background:new 0 0 655.4 655.4;" xml:space="preserve">
<style type="text/css">
	.st0{fill:#EDE3DF;}
</style>
<path class="st0" d="M370.5,465.4c-12.1,0.1-10-1.2-10.2,14.7c0,9.7,3,14.5,9,14.5c15.3,0,23.4-5.2,23.1-15
	C392.1,469.9,385.2,465.4,370.5,465.4L370.5,465.4z"/>
<path class="st0" d="M236.5,476.2c-4.3,14.1-8.6,28.2-13.1,43.2h28.9c-4.6-15.1-8.8-29.2-13.1-43.3
	C238.3,476.2,237.4,476.2,236.5,476.2L236.5,476.2z"/>
<path class="st0" d="M450.7,146.4c-21.7,0.2-40.5,19.1-40.6,40.7c-0.1,21.9,19.3,41.1,41.2,40.9c22.6-0.2,41.2-18.7,41.2-40.9
	C492.5,164.5,473.7,146.2,450.7,146.4L450.7,146.4z"/>
<path class="st0" d="M208.1,361.9c2.1-0.1,4.7,0.1,6.2-1c2.7-2.1,6.6-5.1,6.4-7.6c-0.2-2.7-4-5.5-6.8-7.6c-1.5-1.1-4.1-0.5-8.6-0.8
	c-5-1.1-7.4,1.7-7.6,9.3C197.6,363.1,202.7,362.2,208.1,361.9L208.1,361.9z"/>
<path class="st0" d="M540.7,78.3C478.3,24.7,405.1-1.4,322.7,0.1C230.8,1.7,152.6,36,89.3,102.8C29.6,165.8,0.7,241.3,0,330.9
	C0.9,417,31.6,494,94,557.5c62.6,63.6,139.5,96.3,228.4,97.8c88.6,1.5,166.4-28.5,230.8-89.7c67.2-63.9,101.9-143.4,102.2-235.9
	C655.8,229,617.2,144.2,540.7,78.3L540.7,78.3z M365.3,355.9c8.8,2.9,18.4,4.5,26.4,8.9c14.4,8,14.6,28.7,1.4,38.6
	c-13.1,9.8-39,10.8-51.7,0.5c-5.3-4.3-8.2-11.7-12.1-17.8c0.6-0.9,1.2-1.8,1.9-2.7c7-0.6,14-1.3,21.3-2c1.3,2.7,2.2,5.2,3.6,7.3
	c3.9,5.8,9.4,8.4,15.9,5.6c2.6-1.1,5.8-4.6,5.9-7.2c0.1-2.5-2.8-6.5-5.3-7.5c-7.4-3.1-15.3-4.7-22.9-7.4
	c-14.6-5.2-20.3-19.9-12.3-32.2c1.9-3,5.1-5.6,8.4-7.1c15-6.8,30.1-7.1,44.6,1.2c6.2,3.6,8.4,8.9,8.8,18.6c-6.4,0-12.3,0.3-18.1-0.2
	c-1.9-0.2-3.7-2.4-5.4-3.8c-2-1.6-3.7-4.3-6-5c-4.6-1.3-10.6-2.2-12.5,3.6C355.1,353.5,361,354.5,365.3,355.9L365.3,355.9z
	 M146.5,273.8c-27.6,5.3-52.2,16.2-68.2,41c-16,25-16.9,51.6-6.8,78.7c9.9,26.5,27.8,45.4,55.2,54.2c4.3,1.4,6.2,3.2,6,7.8
	c-0.3,8-0.2,16.1-0.1,24.2c0.1,4.6-2,5.5-6.1,4.5c-54-12.7-87.7-55.8-94.9-104.7c-5.8-39.1,3.8-73.5,31.3-102.2
	c17.5-18.3,39.7-28.8,64-35.3c5.1-1.4,9.3-2.4,11.4-9.3c8.2-27.5,21.5-52.4,41.7-73.3c20.7-21.6,45.3-36.5,73.6-45.9
	c28.4-9.4,57.4-10.1,86.8-6.7c1.6,0.2,3.1,0.7,5,1.2c0.9,8.2-0.4,14.4-8.5,17.4c-1.9,0.7-3.9,2.3-5,4c-6.2,10.5-16.1,9.9-26.4,10.3
	c-64.4,2.8-118.9,43.2-134.1,107.4c-0.5,2.1-1.5,4-2.1,6.1C164.9,270.8,164.9,270.3,146.5,273.8L146.5,273.8z M198.1,401.9
	c0.2,5.3-1.1,7.8-7.1,7.6c-20.1-0.6-17,2.9-17.2-16.9c-0.2-18.2,0.2-36.5-0.2-54.8c-0.1-6.5,2.1-8.4,8.3-8.1
	c13.7,0.5,27.4,0,41.1,0.4c13.1,0.4,20.4,6.5,22.4,17.6c1.9,10.7-3.1,19.4-14.3,24.9c-0.4,0.2-0.7,0.8-0.2,0.2
	c7.3,12,14.1,23.2,22.2,36.4c-10.5,0-18.1,0.4-25.7-0.2c-2-0.1-4.3-2.9-5.5-5c-3.6-6-6.5-12.3-10.1-18.3c-1.6-2.7-3.6-5.4-6.1-7.1
	c-4.4-3.2-7.6-2.3-7.6,3.9C198.1,389.1,197.8,395.5,198.1,401.9L198.1,401.9z M271.5,569.1c-2.1-0.1-5-3.7-5.8-6.2
	c-5-14.9-4.8-14.9-19.9-14.9c-7.8,0-15.6,0.3-23.4-0.1c-5.8-0.3-9.3,1.3-10.1,7.5c-0.4,2.9-1,6-2.4,8.5c-1.3,2.2-3.8,5.2-5.9,5.3
	c-11.7,0.5-23.5,0.2-36.8,0.2c3.7-10.2,6.9-19.3,10.3-28.4c9.3-24.5,18.6-49,28-73.6c1.6-4.2,3.4-8.4,4.9-12.7
	c4-10.7,11.5-16,22.7-16c5.4,0,10.8,0.6,16.1-0.1c8.8-1.3,13,2.6,15.9,10.4c14.2,38.7,28.8,77.3,43.2,115.9c0.4,0.9,0.2,2.1,0.3,4.5
	C295.6,569.4,283.5,569.7,271.5,569.1L271.5,569.1z M264.9,409.3c-5,0.1-7.3-1.4-7.3-6.8c0.2-22,0.2-44,0-66c0-4.8,1.6-6.7,6.5-6.6
	c17.4,0.2,34.9,0.2,52.3,0c5.6-0.1,7,2.3,6.6,7.3c-0.3,4.5,1.1,9.5-6.4,9.2c-8-0.3-16.1-0.1-24.1-0.1c-11.2,0-11.7,0.6-9.4,13.3
	h36.1c0.5,1.4,0.9,2.1,0.9,2.9c0.6,8.4-3.2,12.6-11.4,12.6c-7.8,0-15.6,0.1-23.3,0.2c-0.8,0-1.5,0.5-2.9,0.9
	c-0.2,2.5-0.2,5.1-0.5,7.7c-0.7,5.6,1.6,7.6,7.3,7.4c9.4-0.4,18.8,0.2,28.2-0.2c7-0.3,7,3.8,7,8.8c-0.1,5.1,0.3,9.6-7.2,9.4
	C299.8,408.9,282.4,409.1,264.9,409.3L264.9,409.3z M414.5,513.2c-7.3,4.3-16.5,5.9-25,7.3c-6.8,1.2-14,0.6-20.9,0.2
	c-6.3-0.4-8.7,1.7-8.4,8.2c0.4,11-0.1,22,0.2,33c0.1,5.4-1.4,7.8-7.2,7.6c-8.6-0.4-17.2-0.4-25.8,0c-5.9,0.3-7.3-2.2-7.2-7.6
	c0.2-19.3,0.1-38.7,0.1-58c0-19.4,0.1-38.7,0-58c0-4.3,0.5-7.2,6-7.1c23.1,0.3,46.2-0.2,69.3,0.6c18.9,0.7,30.2,10.1,34.8,26.8
	C435.2,484.6,429.4,504.5,414.5,513.2L414.5,513.2z M432,393.3c-0.1-12.3-0.2-24.7,0-37c0.1-5.1-1.6-7.4-6.9-7.1
	c-5.6,0.3-11.2,0.1-17.2,0.1c-2-12.9,2.9-19.3,14.7-19.3c17.2,0,34.4,0.4,51.5-0.2c8.8-0.3,7.5,5,7.7,10.3c0.3,5.8-0.3,9.4-8,9.3
	c-17.6-0.3-17.6,0.1-17.6,17.8c0,11.3-0.2,22.5,0.1,33.8c0.1,5.9-1.3,8.8-8,8.6C429.4,409,432.1,411.8,432,393.3L432,393.3z
	 M488.7,552c0,5.5,0,11.1,0,17.4c-12.8,0-24.3,0.2-35.8-0.2c-1.7-0.1-4.7-3.5-4.7-5.4c-0.3-39.8-0.2-79.5-0.3-119.3
	c0-4.2,1.5-5.8,5.7-5.8c8.9,0.1,17.8,0.4,26.6-0.1c6.7-0.4,8.7,1.8,8.6,8.5C488.6,482.1,488.7,517.1,488.7,552z M504.6,274.5
	c-7.9,5-12.2,4.2-17.8-3.1c-7.6-10.1-15-11.8-26.1-5.8c-1.7,0.9-2.7,3.6-3.3,5.6c-0.9,3.3-0.2,7.5-2,10.1c-2,3.1-5.6,6.5-9,7.1
	c-5.1,0.8-10.7-0.2-15.9-1.4c-14.3-3.3-16.6-5.7-13.1-19.9c2.9-11.9-7.3-11.8-12.4-16.5c-4.8-4.5-8.4-0.3-11.9,2.3
	c-11.1,8.2-14.6,7.7-22.8-3.4c-8.5-11.7-7.5-22.4,3.1-32.3c1.6-1.5,2.3-4.5,2.4-6.8c0.1-2.3-1.5-4.7-1.6-7
	c-0.2-8.2-4.8-10.7-12.3-11.4c-11.7-1.1-14.2-4.9-12.3-16.4c0.5-2.9,1.2-5.8,1.7-8.7c2.3-14.6,3-15.2,18.2-13.4
	c3.6-0.3,8.7,0.7,10.6-1.3c4.1-4.3,7.1-10,9.5-15.6c0.6-1.4-2.2-4.5-3.8-6.5c-8.5-10.9-7.9-15.4,3.3-23.5c3-2.2,5.8-4.8,8.9-6.8
	c7.9-5.2,11.7-4.5,17.7,3c8.5,10.6,13.7,12,26,5.9c1.9-1,3.3-4.6,3.6-7.1c1.7-15.3,3.4-16.8,18.7-15.4c1.3,0.1,2.7,0.1,4,0.3
	c17.4,1.7,19.9,4.8,16.9,21.9c-0.9,5-0.2,8.5,4.9,10.2c5.4,1.8,8.6,9.6,16.1,5.3c11.4-6.6,21.2-4.9,29.4,5.2
	c9.8,12.1,9.6,15.9-3.2,25.2c-6,4.3-5.6,8.5-4.5,15c1.8,9.8,6.6,13.2,16.1,13.1c6.5,0,10.4,4.5,9.8,11.3c-0.7,7.2-1.4,14.5-3.6,21.3
	c-1,3-5.4,5.1-8.6,6.9c-1.3,0.8-3.6-0.2-5.5-0.5c-11.4-1.5-19.7,3.7-22,14.9c-0.5,2.5,1.6,6,3.4,8.4c8.5,11.5,8.2,14.5-3,22.9
	C511.1,269.9,507.9,272.4,504.6,274.5L504.6,274.5z M525.1,479.6c-1.2,0.4-2.6,0.3-5.3,0.6c0-11.4-0.3-21.9,0.3-32.2
	c0.1-2.2,3.4-5.1,5.9-6.2c19.5-8.5,37-19.5,48.8-37.8c8.3-12.9,13.1-27.1,14.3-42.2c1.9-23.7,1.5-47.5-9.5-69.3
	c-5-9.9-11.9-18.9-18.5-28c-5.1-7.1-4.7-9.2,2.2-14.1c6-4.3,11.4-9.6,18.3-15.5c3.9,4.2,8.6,8.8,12.6,13.8
	c26.9,34,34.3,73.3,30,115.3C617.6,427.8,579.1,461.1,525.1,479.6L525.1,479.6z"/>
</svg>
