<?xml version="1.0" encoding="UTF-8"?>
<svg id="Layer_1" data-name="Layer 1" xmlns="http://www.w3.org/2000/svg" viewBox="0 0 655.32 490.16">
  <defs>
    <style>
      .cls-1 {
        fill: #ece1dd;
        fill-rule: evenodd;
      }
    </style>
  </defs>
  <path class="cls-1" d="M469.54,370.62c-2.27,1.3-4.76,2.24-7.09,3.45-2.14,1.11-2.84-.01-2.9-1.85-.04-1.25,.14-2.55,.48-3.76,4.35-15.34,12.35-28.43,24.26-39.08,.17-.15,.43-.22,.84-.43,5.66,15.84-.88,33.24-15.59,41.66h0Zm-102.85,25.31c10.74-12.53,21.45-25.04,32.2-37.6,1.34,13.96-22.39,41.84-32.2,37.6h0Zm-89.59-114.15c-1.23,7.43-2.76,14.87-4.93,22.08-7.51,24.94-17.15,49.1-27.57,72.94-1.93,4.41-4.73,8.44-7.17,12.62-.38,.65-.94,1.21-1.48,1.74-3.02,2.98-5.88,2.82-7.4-1.08-1.77-4.53-2.87-9.38-3.81-14.18-.63-3.22-.48-6.6-.68-9.9,.2-23.46,7.36-44.78,19.5-64.62,5.01-8.19,10.46-15.98,18.78-21.16,2.56-1.59,5.43-2.87,8.33-3.69,4.44-1.25,7.16,.81,6.43,5.25h0Zm-131.33,101.16c-1.74,23.28-12.29,42.15-29.53,57.43-9.7,8.59-20.82,14.71-33.78,16.86-4.7,.78-9.51,.96-14.06-.98-6.5-2.78-7.96-8.54-8.08-14.69-.19-9.79,3.23-18.65,7.94-27.07,6.14-10.99,15.14-19.36,24.75-27.17,15.14-12.33,31.56-22.76,48.38-32.6,.28-.16,.6-.25,1.27-.52,2.6,9.6,3.83,19.09,3.11,28.75h0ZM0,204.39c0,3.67,1.08,6.09,1.68,8.44,3.95,15.31,12.43,28.45,22.49,40.43,14.33,17.08,31.89,30.83,49.87,43.76,15.6,11.21,31.51,22.17,47.17,33.3,2.69,1.91,5.23,4.11,8.15,6.45-2.51,1.36-4.6,2.55-6.77,3.66-20.67,10.48-40.55,22.23-58.88,36.47-11.05,8.58-21.72,17.7-29.27,29.62-12.14,19.17-16.43,39.59-7.39,61.39,2.64,6.37,6.67,11.87,12.36,15.94,1.84,1.32,3.91,2.62,6.06,3.13,5.52,1.3,11.15,2.15,16.74,3.18,5.28,0,10.55-.01,15.83-.01,17.51-1.56,33.45-7.56,47.84-17.5,22.51-15.53,37.67-36.36,44.19-63.09,4.74-19.43,4.93-38.88-.66-58.22-.52-1.79-1.17-3.55-1.85-5.29-.68-1.74-1.48-3.43-2.42-5.6,11.95-6.88,23.92-13.76,35.89-20.64,.18,.15,.36,.3,.54,.46-.65,2.14-1.35,4.27-1.94,6.42-4.26,15.58-7.1,31.42-6.08,47.59,1.09,17.22,5.9,33.35,15.98,47.74,8.15,11.64,27.58,12.08,36.25,.39,3.08-4.15,6.05-8.49,8.29-13.12,5.85-12.09,11.27-24.38,16.86-36.6,.24-.53,.46-1.06,.97-2.23-.4,5.79-.87,10.86-1.09,15.95-.34,7.94,.13,15.83,2.84,23.39,2.32,6.46,6.27,11.29,13.68,12.14,5.06,.58,9.1-1.74,12.82-4.67,5.82-4.59,10.54-10.26,14.05-16.7,9.92-18.22,20.11-36.34,29.11-55.02,9.73-20.21,18.24-41.01,27.27-61.55,.5-1.13,.94-2.28,1.49-3.65,2.14,8.39,3.62,16.6,6.36,24.38,3.19,9.03,7.13,17.84,11.41,26.4,2.03,4.05,1.79,6.67-1.02,10.06-11.78,14.2-23.35,28.57-34.93,42.92-2.56,3.17-5.12,6.39-7.25,9.85-1.29,2.11-2.15,4.66-2.51,7.12-.69,4.69,2.2,9.21,7.22,10.29,4.58,.99,9.46,1.35,14.14,1.01,16.16-1.19,30.85-6.87,43.82-16.48,16.81-12.45,22.21-29.45,18.14-49.59-1.1-5.46-3.05-10.78-4.94-16.05-.85-2.37-.91-4.04,.64-6.25,13.44-19.19,24.93-39.56,35.61-60.39,.42-.82,.86-1.64,1.6-2.52,3.46,18.01,8.67,35.37,18,51.11-4.76,4.59-9.48,8.75-13.74,13.33-9.39,10.09-17.54,21.06-21.78,34.42-1.82,5.76-3.23,11.62-2.42,17.78,1.26,9.56,9.09,15.77,18.49,13.59,20.12-4.65,37.48-14.14,50.18-30.93,8.54-11.31,9.32-23.92,5.74-37.13-.98-3.59-2.15-7.13-3.4-11.25,4.96-1.54,9.8-3.39,14.81-4.53,26-5.93,51.7-4.89,76.75,4.49,14.62,5.48,26.43,14.65,33.44,29.08,8.55,17.64,3.83,34.37-12.8,45.52-1.55,1.04-3.33,1.86-4.61,3.16-.79,.8-1.26,2.4-1.07,3.5,.11,.64,1.8,1.45,2.78,1.44,5.47-.04,9.89-2.91,14.15-5.85,10.66-7.38,18.44-17.3,20.11-30.37,.03-.25,.14-.57,.33-.98,0-2.9-.4-5.61-.4-8.51-.16-.49,.12-.98,.08-1.35-2.26-19.02-12.42-33.78-27.21-45.35-17.12-13.39-37.34-18.9-58.72-19.77-17.42-.71-34.55,1.88-50.97,7.85-4.68,1.7-9.32,3.71-14.03,5.6-.63-1.14-1.31-2.24-1.87-3.37-4.83-9.9-10.69-19.36-11.98-30.7-.92-8.06-2.04-16.11-.13-24.08,1.84-7.67,4.25-15.2,6.5-22.77,1.16-3.89,.35-6.08-3.37-7.83-1.29-.61-2.7-1.14-4.1-1.35-9.13-1.33-18.14-.57-26.99,2-3.13,.91-5.41,2.67-6.1,6.13-.4,1.99-1.21,3.89-1.77,5.85-2.31,8.16-3.95,16.47-7.69,24.25-9.36,19.5-20.05,38.25-31,56.88-1.18,2.01-2.43,3.98-3.93,6.42-3.84-8.04-7.94-15.25-9.18-23.71-1.4-9.56-2.51-19.11-.13-28.6,1.77-7.08,4.08-14.03,6.21-21.01,1.01-3.32,.54-5.06-2.46-6.81-1.52-.88-3.24-1.67-4.95-1.92-9.48-1.4-18.8-.67-27.94,2.29-2.83,.92-4.32,2.75-5.19,5.68-2.55,8.62-4.72,17.45-8.29,25.66-14.48,33.2-29.38,66.22-44.26,99.24-3.1,6.9-6.75,13.55-10.25,20.26-.89,1.7-2.18,3.2-3.29,4.8-.89-1.05-1.23-1.77-1.23-2.49,.03-4.25-.48-8.61,.33-12.71,2.45-12.41,5.27-24.76,8.24-37.05,2.45-10.16,5.31-20.22,8.03-30.31,.91-3.38,.93-6.53-1.5-9.37-4.08-4.76-12.59-5.8-17.65-2.14-.55,.39-1.19,.67-2.24,1.26,.19-1.61,.29-2.61,.43-3.6,1.06-7.72,1.28-15.42-.84-23.02-2.64-9.48-9.41-14.93-19.24-14.63-4.58,.14-9.39,.93-13.64,2.59-17.85,6.99-31.57,19.38-43.25,34.29-1.06,1.35-2.46,2.58-3.95,3.42-15.1,8.37-30.25,16.64-45.39,24.94-5.66,3.1-11.31,6.19-16.86,9.23-4.52-4.31-8.63-8.78-13.29-12.58-14.23-11.61-28.7-22.93-43.03-34.41-12.7-10.17-25.01-20.77-34.43-34.24-7.01-10.02-11.52-20.99-11.95-33.38-.55-15.79,3.93-30.22,11.97-43.65,10.28-17.18,24.31-30.98,39.73-43.46,16.31-13.21,33.96-24.42,52.24-34.65,25.58-14.32,51.9-26.99,80.11-35.36,28.93-8.58,58.28-13.5,88.56-10.07,11.9,1.35,23.46,4.07,34.07,9.89,8.13,4.45,14.79,10.28,17.89,19.4,3.06,8.97,2.97,18.06,.85,27.16-4.31,18.45-14.41,33.65-27.12,47.24-20.85,22.27-46.28,37.44-74.91,47.45-16.52,5.78-33.52,9.41-50.97,10.87-14.25,1.19-28.19-.07-41.68-5.02-8.93-3.28-16.71-8.31-22.96-15.59-1.12-1.3-2.55-2.72-4.63-1.5-2.04,1.2-2.4,3.14-1.72,5.11,1.14,3.27,2.2,6.67,3.98,9.59,4.47,7.33,11,12.65,18.18,17.21,13.8,8.77,29.21,11.72,45.2,12.41,24.26,1.05,47.93-2.57,71.27-9.08,33.32-9.29,62.29-25.7,85.52-51.59,19.35-21.56,33.16-45.89,36.12-75.27,1.45-14.34-.09-28.39-6.81-41.47-7.28-14.17-18.86-24.71-32.7-31.97C352.52,6.15,330.77,0,308.31,0h-22.5c-27.2,0-53.49,7.79-79.04,17.09-19.34,7.04-38.31,15.35-56.73,24.55-40.11,20.04-77.46,44.2-108.14,77.42-15.29,16.55-28.22,34.82-35.67,56.32-2.18,6.3-4.25,13.04-5.81,19.55"/>
</svg>