<?xml version="1.0" encoding="utf-8"?>
<!-- Generator: Adobe Illustrator 27.0.0, SVG Export Plug-In . SVG Version: 6.00 Build 0)  -->
<svg version="1.1" id="Layer_1" xmlns="http://www.w3.org/2000/svg" xmlns:xlink="http://www.w3.org/1999/xlink" x="0px" y="0px"
	 viewBox="0 0 655.4 655.4" style="enable-background:new 0 0 655.4 655.4;" xml:space="preserve">
<style type="text/css">
	.st0{fill:#E5E5E5;}
	.st1{fill:#EDE3DF;}
</style>
<g id="YsfH2J">
	<g>
		<g>
			<path class="st0" d="M263.9,212.3c-44.1,7.9-74.5,37.7-82.1,81.1c-4.3,24.3-0.4,46.8,17.5,65.1c7.1,7.3,15.7,13.1,22.9,20.2
				c5.8,5.6,11.6,11.6,15.6,18.5c4.7,8.1,4.5,17.3-1.8,25.1c-6.2,7.8-14.8,8.5-23.8,6.8c-12.8-2.5-24.1-8.5-34.6-16
				c-3.3-2.3-6.6-4.6-10.3-7.2c-4.3,14.1-8.2,27.7-12.7,41c-1.8,5.2-0.7,8.5,3.3,12.1c17.4,15.3,37.7,23.9,60.5,27.1
				c43.6,6.2,78.4-15.1,89.7-56.4c9.6-35.2,2.4-66.2-26.8-90.2c-7-5.8-14.5-11-21.5-16.8c-6-4.9-12.3-9.8-17.2-15.6
				c-7.2-8.6-5.6-21.5,3.4-28.2c4.6-3.4,10.4-6,16-7c15.4-2.9,30.2,0.4,44.6,6.1c2,0.8,4,1.4,6.5,2.2c7.1-21,13.9-41.3,21-62.4
				c-5.1-1.7-9.2-3.4-13.5-4.4C301.9,208.8,282.9,208.9,263.9,212.3L263.9,212.3z"/>
			<path class="st1" d="M212.5,148.9c12.8-3.9,25.5-7.7,38.2-11.9c1.4-0.5,2.5-2.9,3.1-4.6c2.8-9.2,4.9-18.7,8.2-27.7
				c8-21.6,19.6-40.8,39.3-53.9c2.6-1.7,5.2-3.3,8.2-5.2c-4.5-4.1-9.4-3.6-14.1-3.1c-20.6,2-35.6,13.7-48.2,29.1
				c-15.7,19.3-25.5,41.6-33.6,64.9c-1.4,3.9-2.6,8-4,12.4C211.1,148.9,211.9,149.1,212.5,148.9L212.5,148.9z"/>
			<path class="st1" d="M274,129c1.5,0,2.1,0.1,2.6,0c16.4-5,32.9-10,49.2-15.3c1.3-0.4,2.8-2.9,2.8-4.4c0.1-6.7,0.2-13.4-0.7-20
				c-1.3-9-3.5-17.9-5.5-28C293.5,76,282.4,101,274,129L274,129z"/>
			<path class="st1" d="M342.3,59.3c2,15.9,3.9,31.6,5.9,47.7c8.2-2.6,16.6-5.2,24.8-7.8C371.2,80.9,354.3,59.7,342.3,59.3z"/>
			<path class="st1" d="M540.7,78.3C478.3,24.7,405.1-1.4,322.7,0.1C230.8,1.7,152.6,36,89.3,102.8C29.6,165.8,0.7,241.3,0,330.9
				C0.9,417,31.6,494,94,557.5c62.6,63.6,139.5,96.3,228.4,97.8c88.6,1.5,166.4-28.5,230.8-89.7c67.2-63.9,101.9-143.4,102.2-235.9
				C655.8,229,617.2,144.2,540.7,78.3L540.7,78.3z M486.8,547.7c-29.7,6.4-59.3,13-89.1,19c-5.6,1.1-11.7,0.6-17.4-0.5
				c-84.6-15.7-169.1-31.6-253.7-47.4c-15.3-2.9-30.6-5.7-46.5-8.7c1.2-10.1,2.3-19.8,3.6-29.5c6.9-53,13.7-105.9,20.6-158.9
				c5.8-44.5,11.8-89,17.4-133.5c1.1-8.3,4.9-12.8,13-15.1c16.4-4.7,32.6-10.1,48.9-15.1c3.4-1,5-2.6,6-6.2
				c8.6-32.1,20.6-62.8,41.6-89.1c15.6-19.6,34.6-33.8,60.2-37.9c14.8-2.4,27.1,1.1,37.1,12.6c1.2,1.4,3.3,2.7,5,2.7
				c20.7,0.4,34.8,11.5,44.9,28.3c4.1,6.8,7.3,14.2,10.5,21.5c1.3,3.1,2.8,3.9,5.9,2.9c4.6-1.5,9.2-2.8,13.9-4.1
				c4.9-1.3,8.9-0.1,12.6,3.7c8.4,8.7,17.2,16.9,25.6,25.6c3.1,3.2,6.3,4.6,10.7,4.8c11.9,0.6,23.7,1.7,35.5,2.5
				c4.3,0.3,6.5,2.2,7.1,6.8c4.6,32.4,9.5,64.8,14.3,97.3c4.3,28.8,8.6,57.5,12.9,86.3c4.3,29.1,8.6,58.3,12.9,87.4
				c5,33.9,10.1,67.8,15.1,101.6c1.3,8.9,2.6,17.9,4,27.4C534.6,537.4,510.7,542.6,486.8,547.7L486.8,547.7z"/>
		</g>
		<path class="st1" d="M334.3,217.8c-7.1,21.2-14,41.5-21,62.4c-2.5-0.8-4.5-1.4-6.5-2.2c-14.4-5.8-29.2-9-44.6-6.1
			c-5.6,1-11.4,3.6-16,7c-9,6.7-10.6,19.6-3.4,28.2c4.9,5.9,11.2,10.7,17.2,15.6c7,5.8,14.5,11,21.5,16.8c29.2,24,36.4,55,26.8,90.2
			c-11.3,41.3-46.1,62.6-89.7,56.4c-22.8-3.3-43.1-11.8-60.5-27.1c-4-3.5-5.1-6.9-3.3-12.1c4.5-13.3,8.4-26.9,12.7-41
			c3.8,2.6,7.1,4.9,10.3,7.2c10.5,7.5,21.8,13.5,34.6,16c9,1.7,17.6,1,23.8-6.8c6.2-7.8,6.5-17,1.8-25.1c-4-6.9-9.8-12.9-15.6-18.5
			c-7.3-7.1-15.8-13-22.9-20.2c-17.9-18.3-21.8-40.8-17.5-65.1c7.7-43.5,38.1-73.3,82.1-81.2c19-3.4,38-3.5,56.9,1
			C325.1,214.3,329.2,216,334.3,217.8L334.3,217.8z"/>
	</g>
</g>
</svg>
