<?xml version="1.0" encoding="utf-8"?>
<!-- Generator: Adobe Illustrator 27.0.0, SVG Export Plug-In . SVG Version: 6.00 Build 0)  -->
<svg version="1.1" id="Layer_1" xmlns="http://www.w3.org/2000/svg" xmlns:xlink="http://www.w3.org/1999/xlink" x="0px" y="0px"
	 viewBox="0 0 654 655.3" style="enable-background:new 0 0 654 655.3;" xml:space="preserve">
<style type="text/css">
	.st0{fill:#EDE3DF;}
</style>
<g id="F4cOIV">
	<g>
		<path class="st0" d="M309.6,654.8c-17.1-1.3-34.1-3.4-50.8-7.1C183.6,631.1,121.5,593,73,533.4C34.5,486.2,11.3,432,3,371.6
			c-4.5-33.1-4-66.2,1.6-99.1c10.8-62.8,37.4-118.1,80.5-165C143.5,44,215.9,8.6,301.9,1.2c4.8-0.4,9.5-0.8,14.3-1.2
			c7.4,0,14.8,0,22.3,0c1.6,0.2,3.2,0.5,4.8,0.6c19.1,0.8,38,3.4,56.6,7.7c58.6,13.4,110,40.8,153.3,82.4
			c55.8,53.6,88.8,119,98.9,195.7c0.7,5,1.3,9.9,1.9,14.8v52.4c-0.2,1-0.5,1.9-0.6,2.8c-1.9,12.7-3,25.6-5.7,38.1
			c-16.2,75.5-54.2,137.8-113.8,186.8c-41.5,34.1-88.9,56.5-141.6,66.9c-15.6,3.1-31.4,4.7-47.2,7c5-0.4,10.1-0.4,15.2-0.4
			 M286.7,214.1c0-9.5-0.1-19,0-28.5c0.1-4.6-1.7-7.9-5.9-9.7c-3.7-1.6-7.4-3.3-11.3-4.3c-26-6.5-52.6-9.1-79.4-9.9
			c-28.8-0.9-57.3,1.5-85.7,6.6c-8.3,1.5-16.8,2.7-24.5,6.7c-5.5,2.9-8.1,7-8.1,13.4c0.2,17.5,0.2,34.9,0,52.4
			c-0.1,5.8,2.1,10.1,6.8,12.9c4.6,2.7,9.4,5.1,14.4,6.9c14.4,5,29.4,7.1,44.5,8.6c22.1,2.2,44.2,2.6,66.4,1.3
			c17.8-1,35.4-2.8,52.7-7.2c8.9-2.3,17.7-4.9,25-10.9c3.3-2.7,5-6.1,5-10.5C286.6,232.6,286.7,223.4,286.7,214.1L286.7,214.1z
			 M77.1,353c-4,2.5-5.1,6.3-5.1,10.5c0,18,0.1,36,0,54c0,4.6,1.5,8.6,5.3,11c4.7,2.9,9.5,5.8,14.7,7.6c18.2,6.5,37.4,8.5,56.5,9.9
			c20.5,1.5,41,1.5,61.5,0c17.9-1.2,35.7-3.1,52.8-8.6c6-1.9,11.7-4.8,17.2-7.8c3.8-2.1,6.6-5.5,6.6-10.3
			c0.1-19.6,0.1-39.3-0.1-58.9c0-2-1.1-4.1-2.2-6c-1-1.7-2.4-2-4.3-0.6c-2.7,2-5.7,3.6-8.8,4.9c-10.6,4.6-21.8,6.9-33.1,8.5
			c-40.3,5.7-80.7,5.8-120.9-0.6C103.1,364.4,89.3,361.5,77.1,353L77.1,353z M76.3,263.9c-3.6,2.5-4.2,6.1-4.2,10
			c0,17.8,0.1,35.6-0.1,53.4c0,5.2,1.7,9.4,6,12c5.1,3,10.5,5.9,16.1,7.8c18,6,36.8,8.5,55.6,9.1c20,0.7,40.1,0.7,60.2,0
			c17.9-0.6,35.7-3,52.8-8.4c6.1-2,12-5,17.7-8.1c3.6-2,6.2-5.4,6.2-9.8c0.1-19.8,0-39.5,0-59.2c0-2.9-1-5.3-3.1-6.7
			c-4.3,2.4-8.2,5.3-12.5,6.7c-9.4,3-18.9,6.1-28.6,7.7c-41.9,6.8-83.8,6.7-125.7,0.1C102.4,276,88.3,273,76.3,263.9L76.3,263.9z
			 M482.7,414.8c8.2-11.5,9.8-24.3,9.7-37.6c-0.1-27.1,0-54.1-0.1-81.2c0-3.9-0.3-7.9-0.7-11.7c-2.1-17.8-12.7-30.3-29.5-33.7
			c-6.8-1.4-14.1-1.4-21.1-1c-16.7,1.1-29.1,11.5-33.2,27.7c-1.5,6.1-2.3,12.5-2.4,18.7c-0.2,27.9-0.2,55.9,0,83.8
			c0,4.8,0.4,9.6,1.2,14.3c2.8,16.4,11.2,28.2,28,32.6c6.7,1.8,13.5,2.2,20.4,0.9c1.6-0.3,3.7,0.2,5,1c8.5,5.4,17,11,25.7,16.8
			c4-7.1,8-14,12-21.1C492.6,421.1,487.8,418.1,482.7,414.8L482.7,414.8z M310.1,361c0.2,15-1.4,30,4,44.4
			c3.8,10.2,10.8,17,21.2,20.2c9.1,2.9,18.4,3.3,27.8,2.3c15.8-1.8,25.8-10.7,29.7-25.8c2.1-8.3,3-16.9,3.5-25.5
			c1-17.4-5.1-32.3-17.5-44.5c-4.7-4.6-9.3-9.2-14-13.7c-4.3-4.2-8.7-8.3-12.9-12.5c-4-4-7.1-8.5-7.9-14.3c-0.6-4.6,1.2-8.1,4.8-9.3
			c5.7-2,10.2,1,10.5,7c0.1,4,0,8,0,12h36.2c0-10.5-1-20.6-5-30.2c-4.4-10.8-12.5-17.7-23.8-19.9c-7-1.4-14.3-1.9-21.4-1.5
			c-16.9,0.9-28.5,10.4-32.8,26.6c-5.8,21.6-1.7,40.8,14.7,56.8c8.5,8.3,16.9,16.7,25.1,25.3c8.7,9,10.3,20.1,8.4,31.9
			c-0.6,3.8-2.8,5.3-6.6,5.6c-5.6,0.3-8.8-3-9-9.9c-0.2-7.1-0.1-14.2-0.1-21.3c0-1.2-0.1-2.3-0.1-3.5L310.1,361L310.1,361z
			 M580.5,396.7h-36.1V250.9h-35.3c-0.1,1.2-0.1,2.3-0.1,3.4c0,56.3,0,112.6-0.1,168.9c0,2.8,0.7,3.7,3.6,3.7
			c21.5-0.1,43-0.1,64.5-0.1c1.2,0,2.3-0.1,3.5-0.2L580.5,396.7L580.5,396.7z"/>
		<path class="st0" d="M440.5,338c0-14.2-0.1-28.4,0.1-42.6c0-3,0.6-6.1,1.4-9c1-3.2,3.6-4.9,7-4.8c3.5,0.1,5.8,2,6.5,5.4
			c0.6,2.9,1.2,5.8,1.2,8.7c0.1,27.7,0.1,55.4,0,83.2c0,3.8-0.6,7.6-1.3,11.4c-0.7,3.8-2.8,5.4-6.3,5.5c-3.8,0.1-6.2-1.3-7.1-4.9
			c-0.9-3.7-1.4-7.5-1.5-11.3C440.4,365.7,440.5,351.8,440.5,338L440.5,338z"/>
	</g>
</g>
</svg>
