<?xml version="1.0" encoding="UTF-8"?>
<svg id="Layer_1" data-name="Layer 1" xmlns="http://www.w3.org/2000/svg" viewBox="0 0 655.35 655.34">
  <defs>
    <style>
      .cls-1 {
        fill: #ece1dd;
      }
    </style>
  </defs>
  <path class="cls-1" d="M582.52,166.88v165.84c0,19.8-15.27,36.57-35.08,36.57h-142.15c-19.8,0-36.02-16.77-36.02-36.57V113.73c0-19.81,16.22-35.71,36.02-35.71h142.15c19.81,0,35.08,15.9,35.08,35.71v53.15h0Zm-286.06,345.64c0,19.8-17.09,33.6-36.89,33.6H117.36c-19.8,0-34.14-13.8-34.14-33.6V115.63c0-19.81,14.33-37.61,34.14-37.61h142.22c19.8,0,36.89,17.8,36.89,37.61v396.89h-.01ZM655.34,78.76c0-43.5-35.26-78.76-78.76-78.76H78.76C35.26,0,0,35.26,0,78.76v497.82c0,43.5,35.26,78.76,78.76,78.76h497.83c43.5,0,78.76-35.26,78.76-78.76V78.76h0Z"/>
</svg>