<?xml version="1.0" encoding="UTF-8"?>
<svg id="Layer_1" data-name="Layer 1" xmlns="http://www.w3.org/2000/svg" viewBox="0 0 655.34 649.88">
  <defs>
    <style>
      .cls-1 {
        fill: #ece1dd;
      }
    </style>
  </defs>
  <path class="cls-1" d="M6.22,226.63s-15.95-11.54,3.21-26.93l44.61-40s12.78-13.48,26.28-1.73L492.13,470.49v149.87s-.21,23.54-30.33,20.94L6.22,226.63Z"/>
  <path class="cls-1" d="M112.38,323.22L6.22,419.95s-10.9,8.13,0,22.68l49.29,44.92s11.71,12.62,29.02-1.73l112.51-85.54-84.65-77.06Zm186.35,.8l194.66-149-1.26-149.06s-8.31-32.53-36.05-15.59L197.04,246.69l101.69,77.33Z"/>
  <path class="cls-1" d="M461.8,641.49c11.3,11.6,25.01,7.8,25.01,7.8l151.7-74.92c19.42-13.27,16.7-29.74,16.7-29.74V97.16c0-19.68-20.08-26.47-20.08-26.47L503.64,7.16c-28.73-17.8-47.55,3.21-47.55,3.21,0,0,24.19-17.47,36.05,15.59V617.63c0,4.07-.86,8.06-2.59,11.66-3.46,7.02-10.99,13.54-28.99,10.8l1.25,1.4Z"/>
</svg>