<?xml version="1.0" encoding="UTF-8"?>
<svg id="Layer_1" data-name="Layer 1" xmlns="http://www.w3.org/2000/svg" viewBox="0 0 653.27 655.34">
  <defs>
    <style>
      .cls-1 {
        fill: #ece1dd;
        fill-rule: evenodd;
      }
    </style>
  </defs>
  <path class="cls-1" d="M326.6,15.92c173.05-.06,310.92,140.54,310.87,316.99-.06,166.59-141.59,305.95-310.75,305.99-172.33,.04-310.92-139.69-310.91-313.45C15.82,156.15,156.56,15.98,326.59,15.93h.01Zm.53,639.41c180.24-.27,326.15-146.89,326.14-327.75C653.27,149.67,508.04,3.14,334.53,.05,152.32-3.19,.05,144.67,0,323.98c-.05,184.46,145.2,331.63,327.14,331.36h-.01Z"/>
  <path class="cls-1" d="M196,180.34c2.83,9.43-5.09,12.71-13.51,13.36-8.86,.69-17.72,1.36-28,2.14,33.95,101.14,67.39,200.79,101.62,302.75,2.44-3.99,3.45-5.11,3.89-6.43,18.8-56.17,37.69-112.31,56.01-168.64,1.67-5.14,.84-11.94-.99-17.22-9.69-27.98-21.3-55.35-29.8-83.65-5.81-19.38-13.52-31.93-36.43-29.68-3.9,.38-8.67-8.01-13.03-12.35,5.28-3.16,10.53-8.96,15.86-9.04,46.65-.72,93.33-.71,139.98,.04,5.35,.08,10.6,6.04,15.89,9.28-4.63,4.23-8.62,10.57-14.03,12.21-8.68,2.62-18.31,2.12-28.7,3.05,33.99,101.09,67.27,200.12,101.75,302.68,15.41-51.2,29.75-98.21,43.7-145.34,12.44-42.07,5.03-81.37-17.47-118.43-6.76-11.14-15.07-21.95-18.9-34.11-4.35-13.83-7.97-29.56-5.66-43.43,3.92-23.5,21.95-35.17,46.35-37.4C381-3.8,171.17,40.57,93.85,175.21c29.76-1.38,58.18-3.18,86.62-3.57,5.38-.07,14.29,4.47,15.55,8.69h-.02Z"/>
  <path class="cls-1" d="M249.2,590.36c-.62,1.81-.66,3.84-1.15,6.85,57.55,15.95,113.98,14.81,171.74-4.66-29.49-80.77-58.32-159.73-88.24-241.68-28.24,82.09-55.32,160.78-82.36,239.5h0Z"/>
  <path class="cls-1" d="M204.73,579.43c-44.6-122.34-88.61-243.08-132.95-364.68-59.97,117.15-14.35,295.89,132.95,364.68h0Z"/>
  <path class="cls-1" d="M606.64,345.1c4.22-55.39-14.89-132.09-31.39-142.65-1.84,20.38-.56,43.05-6.4,63.71-13.76,48.67-30.59,96.49-46.8,144.44-17.61,52.12-35.93,104.01-53.94,156,84.62-50.16,131.13-124.19,138.53-221.51h0Z"/>
</svg>