<?xml version="1.0" encoding="UTF-8"?>
<svg id="Layer_1" data-name="Layer 1" xmlns="http://www.w3.org/2000/svg" viewBox="0 0 653.78 655.34">
  <defs>
    <style>
      .cls-1 {
        fill: #ece1dd;
      }
    </style>
  </defs>
  <path class="cls-1" d="M223.12,453.5l42.03-90.8,40.47,90.8h46.18l-60.71-128.68,61.23-122.45h-45.14l-43.59,85.1-35.28-84.58-47.74-.52,56.04,129.2-60.19,121.94h46.7Zm175.9-114.68c14.53-8.3,29.58-7.78,44.62-5.71,1.04,0,3.11,2.59,3.11,4.15v83.54c-14.01,2.59-27.5,3.63-40.47,0-16.6-4.67-25.94-17.12-28.02-35.8-1.56-20.24,6.23-37.88,20.76-46.18h0Zm-6.22,113.63c29.06,8.3,58.11,4.15,87.17,.52,6.23-.52,7.26-4.15,7.26-10.38V202.88h-38.92v92.36c-21.79-2.07-41.51-1.56-60.71,6.74-31.13,12.97-46.7,42.03-45.14,83.54,1.04,33.73,19.2,58.12,50.33,66.93h0Zm190.95,139.07H75.76c-5.53,0-8.3-2.77-8.3-8.3V75.24c0-8.3,0-6.23,8.3-6.23h507.46c8.3,0,8.3-2.07,8.3,6.74v507.46c0,6.23-1.56,8.3-7.78,8.3h.01ZM649.65,0H5.71C3.64,0,0,1.04,0,1.56V655.34H653.78V1.56C653.78,1.04,651.7,0,649.63,0h.02Z"/>
</svg>